<?xml version="1.0" encoding="iso-8859-1"?>
<!-- Generator: Adobe Illustrator 23.1.0, SVG Export Plug-In . SVG Version: 6.00 Build 0)  -->
<svg version="1.1" id="Layer_1" xmlns="http://www.w3.org/2000/svg" xmlns:xlink="http://www.w3.org/1999/xlink" x="0px" y="0px"
	 viewBox="0 0 524.7 755.427" style="enable-background:new 0 0 524.7 755.427;" xml:space="preserve">
<pattern  y="755.427" width="10" height="10" patternUnits="userSpaceOnUse" id="New_Pattern_2" viewBox="0 -10 10 10" style="overflow:visible;">
	<g>
		<rect y="-10" style="fill:none;" width="10" height="10"/>
		<path style="fill:#707070;" d="M5.25-5.186h3.23v0.5H5.25V-5.186z"/>
		<path style="fill:#707070;" d="M1.52-5.186h3.23v0.5H1.52V-5.186z"/>
		<path style="fill:#707070;" d="M5.25-8.416h-0.5v6.97h0.5V-8.416z"/>
	</g>
</pattern>
<g style="opacity:0.6;">
	<path style="fill:url(#New_Pattern_2);" d="M243.636,346.539c6.453-18.069,32.265-18.069,38.718,0l58.077,174.232l68.402,205.207
		c3.872,12.906-5.162,27.103-19.359,27.103h-126.48h-126.48c-14.197,0-23.231-14.197-19.359-27.103l68.402-205.207L243.636,346.539z
		"/>
	<path style="fill:none;stroke:url(#New_Pattern_2);stroke-width:60;stroke-linecap:round;stroke-miterlimit:10;" d="
		M66.823,582.721L243.636,50.989c6.453-18.069,32.265-18.069,37.428,0l176.813,531.731"/>
</g>
<rect x="-219.693" y="-67.747" style="opacity:0.2;fill:none;" width="964.085" height="925.367"/>
</svg>
