<?xml version="1.0" encoding="utf-8"?>
<!-- Generator: Adobe Illustrator 23.1.0, SVG Export Plug-In . SVG Version: 6.00 Build 0)  -->
<svg version="1.1" id="Layer_1" xmlns="http://www.w3.org/2000/svg" xmlns:xlink="http://www.w3.org/1999/xlink" x="0px" y="0px"
	 viewBox="0 0 58 58" style="enable-background:new 0 0 58 58;" xml:space="preserve">
<style type="text/css">
	.st0{fill:#B3B3B3;}
	.st1{fill:#A6120D;}
	.st2{fill:#DD1B16;}
	.st3{fill:#F2F2F2;}
</style>
<g>
	<path class="st0" d="M28.9,3.6L5,12l3.8,31.3l20.2,11.1l20.3-11.2L53,11.8L28.9,3.6z"/>
	<path class="st1" d="M50.6,13.7L28.9,6.2v45.5l18.2-10.1L50.6,13.7L50.6,13.7z"/>
	<path class="st2" d="M7.7,13.8l3.2,28l17.9,10V6.2L7.7,13.8L7.7,13.8z"/>
	<path class="st3" d="M34.9,30.5l-6,2.8h-6.3l-3,7.4l-5.5,0.1L28.9,7.9L34.9,30.5L34.9,30.5z M34.3,29.1l-5.4-10.6l-4.4,10.4h4.4
		L34.3,29.1L34.3,29.1z"/>
	<path class="st0" d="M28.9,7.9l0,10.6l5,10.5h-5l0,4.4l6.9,0l3.2,7.5l5.3,0.1L28.9,7.9L28.9,7.9z"/>
</g>
</svg>
