<?xml version="1.0" encoding="utf-8"?>
<!-- Generator: Adobe Illustrator 23.1.0, SVG Export Plug-In . SVG Version: 6.00 Build 0)  -->
<svg version="1.1" id="Layer_1" xmlns="http://www.w3.org/2000/svg" xmlns:xlink="http://www.w3.org/1999/xlink" x="0px" y="0px"
	 viewBox="0 0 58 58" style="enable-background:new 0 0 58 58;" xml:space="preserve">
<style type="text/css">
	.st0{fill:#F7931A;}
	.st1{fill:#FFFFFF;}
</style>
<g>
	<path class="st0" d="M52.3,34.8c-3.2,12.9-16.2,20.7-29.1,17.5C10.4,49.1,2.5,36.1,5.7,23.2C8.9,10.3,22,2.5,34.8,5.7
		C47.7,8.9,55.5,22,52.3,34.8L52.3,34.8z"/>
	<path class="st1" d="M39.6,25.6c0.5-3.2-2-4.9-5.3-6.1l1.1-4.3l-2.6-0.7l-1,4.2c-0.7-0.2-1.4-0.3-2.1-0.5l1.1-4.2L28,13.4l-1.1,4.3
		c-0.6-0.1-1.1-0.3-1.7-0.4l0,0l-3.6-0.9l-0.7,2.8c0,0,2,0.4,1.9,0.5c1.1,0.3,1.3,1,1.2,1.5l-1.2,4.9c0.1,0,0.2,0,0.3,0.1l-0.3-0.1
		L21.1,33c-0.1,0.3-0.5,0.8-1.2,0.6c0,0-1.9-0.5-1.9-0.5l-1.3,3l3.4,0.9c0.6,0.2,1.3,0.3,1.9,0.5l-1.1,4.4l2.6,0.7l1.1-4.3
		c0.7,0.2,1.4,0.4,2.1,0.5l-1.1,4.3l2.6,0.7l1.1-4.4c4.5,0.8,7.9,0.5,9.3-3.6c1.1-3.3-0.1-5.2-2.4-6.4C38,29.1,39.2,27.9,39.6,25.6
		L39.6,25.6z M33.6,34c-0.8,3.3-6.3,1.5-8.1,1.1l1.4-5.8C28.7,29.7,34.4,30.6,33.6,34L33.6,34z M34.4,25.5c-0.7,3-5.3,1.5-6.8,1.1
		l1.3-5.3C30.4,21.7,35.2,22.4,34.4,25.5z"/>
</g>
</svg>
