<?xml version="1.0" encoding="utf-8"?>
<!-- Generator: Adobe Illustrator 23.1.0, SVG Export Plug-In . SVG Version: 6.00 Build 0)  -->
<svg version="1.1" id="Layer_1" xmlns="http://www.w3.org/2000/svg" xmlns:xlink="http://www.w3.org/1999/xlink" x="0px" y="0px"
	 viewBox="0 0 58 58" style="enable-background:new 0 0 58 58;" xml:space="preserve">
<style type="text/css">
	.st0{fill:#563D7C;}
	.st1{fill:#FFFFFF;}
</style>
<g>
	<path class="st0" d="M5,46.8c0,3.4,2.8,6.2,6.2,6.2h35.6c3.4,0,6.2-2.8,6.2-6.2V11.2C53,7.8,50.2,5,46.8,5H11.2C7.8,5,5,7.8,5,11.2
		V46.8L5,46.8z"/>
	<path class="st1" d="M24.9,26.2v-6.8h6c0.6,0,1.1,0,1.6,0.1c0.5,0.1,1,0.3,1.4,0.5c0.4,0.2,0.7,0.6,1,1c0.2,0.4,0.4,1,0.4,1.7
		c0,1.2-0.4,2.1-1.1,2.6c-0.7,0.5-1.7,0.8-2.8,0.8L24.9,26.2L24.9,26.2z M18.5,14.5v29.1h14.1c1.3,0,2.6-0.2,3.8-0.5
		c1.2-0.3,2.3-0.8,3.3-1.5c1-0.7,1.7-1.6,2.3-2.6c0.6-1.1,0.9-2.3,0.9-3.8c0-1.8-0.4-3.4-1.3-4.7c-0.9-1.3-2.2-2.2-4-2.7
		c1.3-0.6,2.3-1.4,3-2.4c0.7-1,1-2.2,1-3.7c0-1.4-0.2-2.5-0.7-3.4c-0.4-0.9-1.1-1.7-1.9-2.2c-0.8-0.6-1.8-1-2.9-1.2
		c-1.1-0.2-2.4-0.4-3.8-0.4L18.5,14.5L18.5,14.5z M24.9,38.6v-8h7c1.4,0,2.5,0.3,3.3,1c0.8,0.6,1.3,1.7,1.3,3.2
		c0,0.8-0.1,1.4-0.4,1.9c-0.3,0.5-0.6,0.9-1,1.2c-0.4,0.3-0.9,0.5-1.5,0.6c-0.6,0.1-1.2,0.2-1.8,0.2H24.9L24.9,38.6z"/>
</g>
</svg>
