<?xml version="1.0" encoding="utf-8"?>
<!-- Generator: Adobe Illustrator 23.1.0, SVG Export Plug-In . SVG Version: 6.00 Build 0)  -->
<svg version="1.1" id="Layer_1" xmlns="http://www.w3.org/2000/svg" xmlns:xlink="http://www.w3.org/1999/xlink" x="0px" y="0px"
	 viewBox="0 0 58 58" style="enable-background:new 0 0 58 58;" xml:space="preserve">
<style type="text/css">
	.st0{fill:#FF1A1A;}
	.st1{fill:#D60909;}
	.st2{fill:#FFFFFF;}
	.st3{fill:#D8E5EA;}
	.st4{fill:#33363A;}
	.st5{fill:#A7BBC1;}
</style>
<g>
	<g>
		<circle class="st0" cx="29" cy="29" r="23.4"/>
	</g>
	<g>
		<ellipse class="st1" cx="29" cy="29" rx="23.4" ry="17.9"/>
	</g>
	<g>
		<path class="st2" d="M5.6,29c0,12.9,10.5,23.4,23.4,23.4S52.4,41.9,52.4,29H5.6z"/>
	</g>
	<g>
		<path class="st3" d="M29,46.9c12.9,0,23.4-8,23.4-17.9H5.6C5.6,38.9,16.1,46.9,29,46.9z"/>
	</g>
	<path class="st4" d="M29,5C15.8,5,5,15.8,5,29c0,13.2,10.8,24,24,24s24-10.8,24-24C53,15.8,42.2,5,29,5z M29,6.1
		c12.4,0,22.5,9.9,22.8,22.3H6.2C6.5,16.1,16.6,6.1,29,6.1z M29,51.9c-12.4,0-22.5-9.9-22.8-22.3h45.7C51.5,41.9,41.4,51.9,29,51.9z
		"/>
	<g>
		<circle class="st5" cx="29" cy="31.2" r="6.4"/>
	</g>
	<g>
		<circle class="st2" cx="29" cy="29" r="6.4"/>
	</g>
	<g>
		<path class="st3" d="M24.5,33.5c-2.5-2.5-2.5-6.5,0-9c2.5-2.5,6.5-2.5,9,0"/>
	</g>
	<g>
		<path class="st4" d="M29,35.9c-1.9,0-3.6-0.7-4.9-2c-2.7-2.7-2.7-7.1,0-9.8c2.7-2.7,7.1-2.7,9.8,0l0,0c1.3,1.3,2,3.1,2,4.9
			s-0.7,3.6-2,4.9C32.6,35.2,30.9,35.9,29,35.9z M29,23.2c-1.5,0-3,0.6-4.1,1.7c-2.3,2.3-2.3,5.9,0,8.2c1.1,1.1,2.6,1.7,4.1,1.7
			c1.5,0,3-0.6,4.1-1.7c1.1-1.1,1.7-2.6,1.7-4.1s-0.6-3-1.7-4.1C32,23.8,30.5,23.2,29,23.2z"/>
	</g>
	<g>
		<path class="st2" d="M31.2,31.2c-1.2,1.2-3.1,1.2-4.3,0c-1.2-1.2-1.2-3.1,0-4.3c1.2-1.2,3.1-1.2,4.3,0C32.4,28,32.4,30,31.2,31.2z
			"/>
	</g>
	<g>
		<path class="st3" d="M26.8,26.8c1.2-1.2,3.1-1.2,4.3,0c1.2,1.2,1.2,3.1,0,4.3"/>
	</g>
	<g>
		<path class="st4" d="M29,32.6c-0.9,0-1.9-0.4-2.6-1.1c-1.4-1.4-1.4-3.7,0-5.1c0.7-0.7,1.6-1.1,2.6-1.1l0,0c1,0,1.9,0.4,2.6,1.1
			c1.4,1.4,1.4,3.7,0,5.1c0,0,0,0,0,0C30.9,32.3,29.9,32.6,29,32.6z M29,26.5c-0.7,0-1.3,0.3-1.8,0.7c-1,1-1,2.6,0,3.5
			c1,1,2.6,1,3.5,0c1-1,1-2.6,0-3.5C30.3,26.8,29.7,26.5,29,26.5L29,26.5z"/>
	</g>
</g>
</svg>
