<?xml version="1.0" encoding="utf-8"?>
<!-- Generator: Adobe Illustrator 23.1.0, SVG Export Plug-In . SVG Version: 6.00 Build 0)  -->
<svg version="1.1" id="Layer_1" xmlns="http://www.w3.org/2000/svg" xmlns:xlink="http://www.w3.org/1999/xlink" x="0px" y="0px"
	 viewBox="0 0 58 58" style="enable-background:new 0 0 58 58;" xml:space="preserve">
<style type="text/css">
	.st0{fill:#4E8EF7;}
</style>
<circle class="st0" cx="29" cy="29" r="9.8"/>
<path class="st0" d="M49,12.4c0-1.9-1.5-3.4-3.4-3.4c-0.8,0-1.6,0.3-2.2,0.8c-4-3-9-4.8-14.4-4.8C15.8,5,5,15.8,5,29
	c0,13.2,10.8,24,24,24s24-10.8,24-24c0-5.4-1.8-10.4-4.8-14.4C48.7,14,49,13.2,49,12.4L49,12.4z M29,52.2C16.2,52.2,5.8,41.8,5.8,29
	C5.8,16.2,16.2,5.8,29,5.8c5.2,0,10,1.7,13.9,4.6c-0.4,0.6-0.6,1.2-0.6,1.9c0,1.9,1.5,3.4,3.4,3.4c0.7,0,1.4-0.2,1.9-0.6
	c2.9,3.9,4.6,8.7,4.6,13.9C52.2,41.8,41.8,52.2,29,52.2L29,52.2z"/>
</svg>
