<?xml version="1.0" encoding="utf-8"?>
<!-- Generator: Adobe Illustrator 23.1.0, SVG Export Plug-In . SVG Version: 6.00 Build 0)  -->
<svg version="1.1" id="Layer_1" xmlns="http://www.w3.org/2000/svg" xmlns:xlink="http://www.w3.org/1999/xlink" x="0px" y="0px"
	 viewBox="0 0 58 58" style="enable-background:new 0 0 58 58;" xml:space="preserve">
<style type="text/css">
	.st0{fill:#F7DF1E;}
</style>
<g>
	<path class="st0" d="M5,5h48v48H5V5z"/>
	<path d="M17.6,45.1l3.7-2.2c0.7,1.3,1.4,2.3,2.9,2.3c1.5,0,2.4-0.6,2.4-2.8V27h4.5v15.4c0,4.7-2.7,6.8-6.7,6.8
		C20.8,49.2,18.7,47.4,17.6,45.1 M33.6,44.6l3.7-2.1c1,1.6,2.2,2.7,4.4,2.7c1.9,0,3.1-0.9,3.1-2.2c0-1.5-1.2-2.1-3.3-3l-1.1-0.5
		c-3.3-1.4-5.4-3.1-5.4-6.8c0-3.4,2.6-6,6.6-6c2.9,0,4.9,1,6.4,3.6l-3.5,2.3c-0.8-1.4-1.6-1.9-2.9-1.9c-1.3,0-2.2,0.8-2.2,1.9
		c0,1.4,0.8,1.9,2.8,2.7l1.1,0.5c3.8,1.6,6,3.3,6,7.1c0,4.1-3.2,6.3-7.5,6.3C37.6,49.2,34.9,47.2,33.6,44.6"/>
</g>
</svg>
