<?xml version="1.0" encoding="utf-8"?>
<!-- Generator: Adobe Illustrator 23.1.0, SVG Export Plug-In . SVG Version: 6.00 Build 0)  -->
<svg version="1.1" id="Layer_1" xmlns="http://www.w3.org/2000/svg" xmlns:xlink="http://www.w3.org/1999/xlink" x="0px" y="0px"
	 viewBox="0 0 58 58" style="enable-background:new 0 0 58 58;" xml:space="preserve">
<style type="text/css">
	.st0{fill:#FD9205;}
	.st1{fill:#115B97;}
	.st2{fill:#ECF3F4;}
	.st3{fill:#EBF1F1;}
	.st4{fill:#E6F6FD;}
	.st5{fill:#EBF3F5;}
	.st6{fill:#EAEEEF;}
	.st7{fill:#EDF0EF;}
	.st8{fill:#E9F3F7;}
	.st9{fill:#EAF6F1;}
	.st10{fill:#EDF5F0;}
	.st11{fill:#E6F8FA;}
	.st12{fill:#14588B;}
	.st13{fill:#F0EFE8;}
	.st14{fill:#1D5883;}
	.st15{fill:#18588A;}
	.st16{fill:#EFEEE9;}
	.st17{fill:#EFF4F7;}
	.st18{fill:#095E9E;}
	.st19{fill:#15588C;}
	.st20{fill:#0B598B;}
	.st21{fill:#065FA5;}
	.st22{fill:#075CA5;}
</style>
<path class="st0" d="M22.4,24.4c0.9-0.1,1.7-0.3,2.5-0.8c0-0.1,0-0.1,0.1,0c2.9-1.1,4.7-3.2,5.9-6c0.4-0.8,0.3-0.9,1-0.3
	c2.9,2.5,4.6,5.7,5.5,9.4c0.2,0.8,0.3,1.7,0.5,2.5c0.1,0.2,0.2,0.4,0.3,0.7c0,0.2,0,0.4,0,0.6c-0.1,0.3,0,0.6-0.1,0.9
	c0,0.5,0,1,0,1.5c-0.2,0.4,0.1,0.9-0.2,1.3c-0.4,2-1.1,3.8-2.4,5.5c-1.9,2.4-4.5,3.8-7.4,4.6c-1,0.3-2,0.4-2.9,0.6
	c-0.5,0.1-0.6,0-0.5-0.6c0.7-3.2,0.5-6.5,0.3-9.8c-0.2-2.3-1.8-4-4.1-4.5c-0.5-0.1-1-0.3-1.5-0.4c-0.7-0.2-0.9-0.6-0.6-1.3
	c0.3-0.8,0.8-1.5,1.2-2.3C20.3,24.9,21.3,24.5,22.4,24.4z"/>
<path class="st1" d="M14.9,27.9c-0.4,0.1-0.8,0.2-1.3,0c-1.2-0.4-1.3-0.8-0.7-1.9c0.7-1.2,1.2-2.6,2.1-3.7c0.2-0.3,0.4-0.5,0.7-0.7
	c0.2,0,0.2-0.2,0.3-0.3c1.1-1.4,2.5-2.1,4.1-2.6c0.5-0.2,0.9-0.3,1.4-0.4c2.6-0.5,3.7-1.9,3.8-4.5c0.1-3.1-0.9-5.9-2.1-8.7
	c-0.2-0.5-0.4-0.9-0.5-1.5c0-0.4,0.2-0.6,0.5-0.5c0.2,0.1,0.5,0.1,0.7,0.3c4.8,2.8,9.3,5.9,13,10.1c4,4.6,6.5,10,7.1,16.1
	C45.1,39.4,39,48,29.5,50.3c-1,0.3-2.1,0.4-3.1,0.6c0,0-0.1-0.1-0.2-0.1c-0.2-0.2-0.5,0-0.7,0c0,0-0.1,0-0.1,0
	c-0.7-1.5-0.2-2.3,1.4-2.7c5.5-1.1,10.1-3.6,12.8-8.7c0.9-1.8,1.6-3.6,1.6-5.7c0-1.1,0.2-2.3,0-3.4c0-0.3,0.1-0.6,0-0.8
	c-0.1-0.2,0.1-0.4,0-0.6c0,0,0-0.1,0.1-0.1c0-0.3,0.1-0.5-0.1-0.8c-0.5-2.2-1.1-4.3-2.1-6.4c-1.8-3.6-4.2-6.7-7.3-9.3
	c-0.5-0.2-0.9-0.6-1.3-1.1c-0.7-0.7-1.5-1.3-2.3-1.8c-0.2-0.1-0.5-0.3-0.7-0.1c-0.3,0.2,0,0.4,0,0.6c0.5,1.8,0.6,3.6,0.2,5.5
	c-0.6,2.9-2.4,4.7-5.3,5.4c-2.1,0.5-4,1.4-5.3,3.1c-0.1,0.4-0.4,0.8-0.6,1.2c-0.1,0.1-0.2,0.3-0.2,0.5c-0.2,0.4-0.3,0.8-0.7,1.2
	c-0.1,0.1-0.1,0.2-0.2,0.3c-0.1,0.1,0,0.2-0.2,0.3l0,0C15.3,27.6,15.1,27.7,14.9,27.9z"/>
<path class="st2" d="M22.4,24.4c-1,0.2-1.8,0.7-2.5,1.5c-0.2-0.4,0-0.7,0-1.1l0,0c0.3-0.1,0.8,0.1,0.9-0.5c0-0.1,0.3-0.2,0.4-0.1
	C21.6,24.5,22,24.4,22.4,24.4z"/>
<path class="st3" d="M16.5,25.1c0.2-0.4,0.4-0.8,0.7-1.1c0.1,0.3,0.2,0.5,0,0.8c0.2,0.1,0.2-0.3,0.4-0.2c0.2,0.6-0.1,0.7-0.6,0.8
	c-0.1,0-0.2,0-0.3,0.2c0,0-0.1,0-0.1,0.1c-0.1,0-0.1-0.1-0.2-0.1C16.5,25.3,16.5,25.2,16.5,25.1z"/>
<path class="st4" d="M41.4,29.4c0.1,1.5,0.3,2.9-0.1,4.3c0-0.1,0-0.2,0-0.3c-0.1-0.2-0.1-0.3,0-0.5c0-0.1,0-0.2,0-0.3
	c-0.1-1-0.1-2,0-2.9c0-0.1,0-0.1,0-0.2C41.2,29.4,41.3,29.4,41.4,29.4z"/>
<path class="st5" d="M38,31.4c0-0.3,0-0.6,0-0.9c0.1-0.3,0-0.6,0.1-0.8c0,0.1,0,0.1-0.1,0.2c-0.1-0.2-0.1-0.4-0.1-0.7
	c0.5,0,0.4,0.3,0.4,0.6c0.3-0.1,0.1-0.4,0.3-0.5c0,0.4,0.4,0.7,0,1.1v0c0-0.2-0.1-0.4-0.3-0.1C38.2,30.7,38.1,31.1,38,31.4z"/>
<path class="st2" d="M19.9,24.9c-0.3,0.1-0.3,0.4-0.5,0.5c-0.3-1,0-1.3,1-1C20.3,24.6,19.9,24.6,19.9,24.9
	C19.9,24.9,19.9,24.9,19.9,24.9z"/>
<path class="st6" d="M15.7,26.8c0.1-0.5,0.3-0.9,0.6-1.3c0.1-0.1,0.2-0.1,0.4,0l0,0c0.1,0.5,0,0.8-0.5,1.1
	C16,26.7,15.8,26.7,15.7,26.8z"/>
<path class="st7" d="M41.3,29.7c0,1,0,2,0,2.9C41,31.7,41,30.7,41.3,29.7z"/>
<path class="st8" d="M16.1,26.6c0.2-0.4,0.4-0.7,0.5-1.1c0.1,0,0.1,0,0.2,0c0.1,0.6-0.4,1.1-0.3,1.8C16.2,27.1,16.4,26.7,16.1,26.6z
	"/>
<path class="st5" d="M38.4,33.7c0-0.4-0.3-0.8-0.3-1.2c0-0.2,0.1-0.3,0.3-0.3c0.2,0.1,0,0.2,0,0.3C38.4,32.9,38.4,33.3,38.4,33.7z"
	/>
<path class="st9" d="M38.8,31.7c0-0.3,0-0.5,0-0.9c0.5,0.7,0,1.3,0,1.9c0-0.3,0-0.6,0-0.9C38.7,31.8,38.7,31.8,38.8,31.7
	C38.7,31.7,38.8,31.7,38.8,31.7z"/>
<path class="st8" d="M17.1,25.4c0.3-0.2,0.7-0.3,0.6-0.8c0.4,0.2,0.3,0.4,0.1,0.7C17.6,25.6,17.4,25.6,17.1,25.4z"/>
<path class="st10" d="M33.7,42.4c-0.3,0.3-0.4,0.5-0.7,0.4c0,0-0.1-0.1-0.1-0.2C33.1,42.3,33.4,42.5,33.7,42.4z"/>
<path class="st11" d="M25,23.7L25,23.7c0,0-0.1,0-0.1,0c-0.2-0.1-0.4-0.2-0.7-0.4C24.7,23.2,25,23.1,25,23.7z"/>
<path class="st5" d="M38.8,31.7c0,0.1,0,0.1,0,0.2c-0.1,0-0.4,0-0.3-0.2c0.1-0.4-0.1-0.9,0.2-1.2c0,0,0,0,0,0
	C38.7,30.9,38.5,31.3,38.8,31.7z"/>
<path class="st5" d="M37.8,34.2c0-0.4,0-0.9,0.2-1.3c0,0.3,0,0.7,0.1,1C38.2,34.1,38,34.2,37.8,34.2z"/>
<path class="st10" d="M33.9,41.8c0.1,0,0.2,0.1,0.2,0.2c0,0.2-0.2,0.3-0.4,0.4c0-0.1-0.1-0.2-0.1-0.4C33.6,41.9,33.7,41.8,33.9,41.8
	z"/>
<path class="st9" d="M39,29.4c0.1,0.4,0.2,0.7,0,1.2C39,30.1,39,29.8,39,29.4z"/>
<path class="st8" d="M15.4,27.4c0.1-0.1,0.1-0.2,0.2-0.3c0.2,0.3,0.4-0.1,0.6,0C16,27.5,15.6,27.4,15.4,27.4z"/>
<path class="st12" d="M26.4,50.8c0,0,0,0.1,0,0.1c-0.3,0.1-0.7,0.2-0.9-0.1l0,0C25.8,50.7,26.1,50.5,26.4,50.8z"/>
<path class="st13" d="M19.1,18.8c-0.2,0.1-0.3,0.1-0.5,0.1c-0.1,0-0.1-0.1,0-0.2C18.7,18.7,18.8,18.7,19.1,18.8z"/>
<path class="st7" d="M41.3,33c0,0.2,0,0.3,0,0.5c-0.2,0-0.3-0.1-0.3-0.3C41,33,41.1,33,41.3,33z"/>
<path class="st7" d="M41.4,29.4c0,0-0.1,0.1-0.1,0.1c-0.3-0.2,0.1-0.4,0-0.7C41.4,29.1,41.4,29.2,41.4,29.4z"/>
<path class="st14" d="M41.2,28c0.3,0.2,0.2,0.5,0.1,0.8C41.3,28.5,41.3,28.3,41.2,28z"/>
<path class="st8" d="M14.9,27.9c0.2-0.2,0.3-0.3,0.5-0.5C15.4,27.7,15.2,27.8,14.9,27.9z"/>
<path class="st15" d="M16,21.3c-0.1,0.1,0.2,0.6-0.3,0.3C15.7,21.5,15.8,21.3,16,21.3z"/>
<path class="st16" d="M38.6,14.6c0,0.1,0,0.1,0,0.2c-0.1,0-0.2-0.1-0.2-0.1c-0.1,0-0.1-0.2,0-0.2C38.4,14.4,38.5,14.5,38.6,14.6z"/>
<path class="st17" d="M38,29.9c0,0,0-0.1,0-0.1c0-0.1,0.1-0.1,0.1,0c0,0.2,0.1,0.5-0.1,0.7C38,30.3,38,30.1,38,29.9z"/>
<path class="st18" d="M26.4,50.8c-0.3,0-0.6,0-0.9,0C25.8,50.6,26.1,50.2,26.4,50.8z"/>
<path class="st19" d="M33.4,48c0.1,0.1,0.2,0.1,0.3,0.2c0,0.1-0.1,0.2-0.2,0.1c-0.1,0-0.3-0.1-0.2-0.2C33.3,48.1,33.4,48.1,33.4,48z
	"/>
<path class="st20" d="M38.8,41.6c-0.1,0.4-0.1,0.6-0.1,0.8C38.4,42.1,38.4,41.9,38.8,41.6z"/>
<path class="st20" d="M36.1,44.9c-0.2,0-0.4,0.1-0.6,0.1c0,0,0-0.1,0-0.1C35.6,44.7,35.8,44.7,36.1,44.9z"/>
<path class="st21" d="M13,27.2c-0.1-0.2-0.1-0.4,0-0.6C13.1,26.7,13,26.9,13,27.2z"/>
<path class="st8" d="M16.6,25.5c-0.1,0-0.2,0-0.4,0c0.1-0.1,0.2-0.3,0.2-0.4C16.6,25.2,16.6,25.4,16.6,25.5z"/>
<path class="st22" d="M21.9,20.6c0.2-0.1,0.3-0.1,0.5,0C22.2,20.7,22,20.8,21.9,20.6z"/>
</svg>
