<?xml version="1.0" encoding="utf-8"?>
<!-- Generator: Adobe Illustrator 23.1.0, SVG Export Plug-In . SVG Version: 6.00 Build 0)  -->
<svg version="1.1" id="Layer_1" xmlns="http://www.w3.org/2000/svg" xmlns:xlink="http://www.w3.org/1999/xlink" x="0px" y="0px"
	 viewBox="0 0 58 58" style="enable-background:new 0 0 58 58;" xml:space="preserve">
<style type="text/css">
	.st0{fill:#382B73;}
	.st1{fill:#EF5A9D;}
	.st2{fill:#E43D91;}
	.st3{fill:#F06EA9;}
	.st4{fill:#FFFFFF;}
	.st5{fill:#D1D3D4;}
	.st6{fill:#FEDE3A;}
	.st7{fill:#F7CB15;}
</style>
<g>
	<g>
		<path class="st0" d="M22.7,9c-2.4,0-4.5,1.6-5.5,3.8c-0.2,0.5-0.7,0.8-1.1,0.7c-0.7-0.1-1.4,0-2.1,0.2c-2.3,0.7-4.1,2.9-4.4,5.5
			c-0.1,1.1,0,2.1,0.2,3.1C9.9,23,9.6,23.7,9,23.9c-2.3,0.9-4,3.4-4,6.3c0,2.9,1.7,5.4,4,6.3c0.6,0.2,0.9,1,0.7,1.6
			c-0.3,0.9-0.4,2-0.2,3.1c0.3,2.6,2.1,4.8,4.4,5.5C14.6,47,15.3,47,16,47c0.5,0,0.9,0.2,1.1,0.7c1,2.3,3.1,3.8,5.5,3.8
			c3.4,0,6.1-3,6.1-6.7c0,0,0-0.1,0-0.1c0-0.1,0-0.1,0-0.2V16c0-0.1,0-0.1,0-0.2c0,0,0-0.1,0-0.1C28.8,12,26,9,22.7,9L22.7,9z"/>
		<path class="st0" d="M53,21.3c0-1.1-0.9-1.9-1.9-1.9h-4v3.8h4C52.1,23.2,53,22.4,53,21.3z"/>
		<path class="st0" d="M51.1,28.3h-4v3.8h4c1.1,0,1.9-0.9,1.9-1.9C53,29.2,52.1,28.3,51.1,28.3z"/>
		<path class="st0" d="M51.1,37.2h-4V41h4c1.1,0,1.9-0.9,1.9-1.9S52.1,37.2,51.1,37.2z"/>
		<path class="st0" d="M42.5,10.9c0-1.1-0.9-1.9-1.9-1.9s-1.9,0.9-1.9,1.9v4h3.8L42.5,10.9L42.5,10.9z"/>
		<path class="st0" d="M38.7,49.6c0,1.1,0.9,1.9,1.9,1.9c1.1,0,1.9-0.9,1.9-1.9v-4h-3.8L38.7,49.6L38.7,49.6z"/>
		<path class="st0" d="M44.2,14.9H33.6v-4c0-0.5-0.2-1-0.6-1.3c-0.2-0.2-0.6-0.4-0.9-0.5C32,9,31.7,9.1,31.7,9.4v41.7
			c0,0.2,0.2,0.4,0.4,0.3c0.3-0.1,0.6-0.3,0.9-0.5c0.3-0.3,0.6-0.8,0.6-1.3v-4h10.6c1.6,0,2.9-1.3,2.9-2.9V17.8
			C47.1,16.2,45.8,14.9,44.2,14.9z"/>
	</g>
	<path class="st1" d="M28.8,13.2c0-3.7-2.7-6.7-6.1-6.7c-2.4,0-4.5,1.6-5.5,3.8c-0.2,0.5-0.7,0.8-1.1,0.7c-0.7-0.1-1.4,0-2.1,0.2
		c-2.3,0.7-4.1,2.9-4.4,5.5c-0.1,1.1,0,2.1,0.2,3.1c0.2,0.7-0.1,1.4-0.7,1.6c-2.3,0.9-4,3.4-4,6.3s1.7,5.4,4,6.3
		c0.6,0.2,0.9,1,0.7,1.6c-0.3,0.9-0.4,2-0.2,3.1c0.3,2.6,2.1,4.8,4.4,5.5c0.7,0.2,1.4,0.3,2.1,0.2c0.5,0,0.9,0.2,1.1,0.7
		c1,2.3,3.1,3.8,5.5,3.8c3.4,0,6.1-3,6.1-6.7c0,0,0-0.1,0-0.1c0-0.1,0-0.1,0-0.2V13.6c0-0.1,0-0.1,0-0.2
		C28.8,13.3,28.8,13.3,28.8,13.2L28.8,13.2z"/>
	<path class="st2" d="M28.8,13.2c0-3.7-2.7-6.7-6.1-6.7c-0.4,0-0.8,0-1.2,0.1c2.8,0.6,5,3.3,5,6.6c0,0,0,0.1,0,0.1
		c0,0.1,0,0.1,0,0.2V42c0,0.1,0,0.1,0,0.2c0,0,0,0.1,0,0.1c0,3.3-2.1,6-5,6.6c0.4,0.1,0.8,0.1,1.2,0.1c3.4,0,6.1-3,6.1-6.7
		c0,0,0-0.1,0-0.1c0-0.1,0-0.1,0-0.2V13.6c0-0.1,0-0.1,0-0.2C28.8,13.3,28.8,13.3,28.8,13.2L28.8,13.2z"/>
	<path class="st3" d="M9.5,36.7c-0.1,0.7-0.1,1.4,0,2.1c0,0,0,0.1,0,0.1c0.1-0.3,0.1-0.7,0.2-1C9.8,37.5,9.8,37,9.5,36.7L9.5,36.7z"
		/>
	<path class="st3" d="M28.8,13.2c0-3.7-2.7-6.7-6.1-6.7c-2.4,0-4.5,1.6-5.5,3.8c-0.2,0.5-0.7,0.8-1.1,0.7c-0.7-0.1-1.4,0-2.1,0.2
		c-2.3,0.7-4.1,2.9-4.4,5.5c-0.1,0.7-0.1,1.4,0,2.1c0.4-2.5,2.1-4.6,4.4-5.3c0.7-0.2,1.4-0.3,2.1-0.2c0.5,0,0.9-0.2,1.1-0.7
		c1-2.3,3.1-3.8,5.5-3.8c3.4,0,6.1,3,6.1,6.7v-1.9c0-0.1,0-0.1,0-0.2C28.8,13.3,28.8,13.3,28.8,13.2L28.8,13.2z"/>
	<path class="st3" d="M28.8,15.8v-0.3c0,0,0,0.1,0,0.1C28.8,15.7,28.8,15.7,28.8,15.8z"/>
	<path class="st2" d="M22.7,43.1c-2.4,0-4.5-1.6-5.5-3.8c-0.2-0.5-0.7-0.8-1.1-0.7c-0.7,0.1-1.4,0-2.1-0.2c-2.3-0.7-4.1-2.9-4.4-5.5
		c-0.1-1.1,0-2.1,0.2-3.1c0.2-0.7-0.1-1.4-0.7-1.6c-1.5-0.6-2.7-1.8-3.4-3.3c-0.4,0.9-0.6,1.9-0.6,3c0,2.9,1.7,5.4,4,6.3
		c0.6,0.2,0.9,1,0.7,1.6c-0.3,0.9-0.4,2-0.2,3.1c0.3,2.6,2.1,4.8,4.4,5.5c0.7,0.2,1.4,0.3,2.1,0.2c0.5,0,0.9,0.2,1.1,0.7
		c1,2.3,3.1,3.8,5.5,3.8c3.4,0,6.1-3,6.1-6.7c0,0,0-0.1,0-0.1c0-0.1,0-0.1,0-0.2v-5.6C28.8,40.1,26,43.1,22.7,43.1L22.7,43.1z"/>
	<path class="st2" d="M28.8,36.3V36c0,0.1,0,0.1,0,0.2C28.8,36.3,28.8,36.3,28.8,36.3z"/>
	<path class="st3" d="M26.5,35.6c0,0.5-0.4,0.9-0.9,0.9c0,0,0,0,0,0c-0.9,0-1.8-0.4-2.5-0.9c-2.3,1.3-4.1,3.5-5,6.2
		c-0.4,1.3-0.7,2.7-0.6,4c-0.1-0.2-0.2-0.4-0.3-0.5c-0.2-0.5-0.7-0.8-1.1-0.7c-0.1,0-0.2,0-0.3,0c0.1-1.2,0.3-2.3,0.7-3.4
		c1-2.9,2.9-5.4,5.3-6.9c-0.7-1-1-2.2-0.9-3.5c0-0.5,0.4-0.9,0.9-0.9c0.5,0,0.9,0.5,0.8,1c0,1,0.3,1.9,0.8,2.6
		c0.6,0.7,1.4,1.1,2.3,1.2C26.1,34.6,26.5,35,26.5,35.6L26.5,35.6z M16.8,34.1c0.5,0,0.8-0.4,0.9-0.9c0-0.5-0.3-1-0.8-1
		c-0.9,0-1.7-0.5-2.3-1.2c-0.6-0.7-0.9-1.6-0.8-2.6c0-0.5-0.3-1-0.8-1c-0.5,0-0.9,0.4-0.9,0.9c0,0.8,0.1,1.6,0.4,2.4
		c-0.1,0.1-0.1,0.2-0.2,0.3c-0.6,1.5-1.6,2.6-2.9,3.2c0.4,0.3,0.6,0.9,0.4,1.5c0,0.1-0.1,0.3-0.1,0.4c1.7-0.7,3-2,3.9-3.7
		C14.4,33.5,15.5,34,16.8,34.1C16.8,34.1,16.8,34.1,16.8,34.1L16.8,34.1z M23.1,25.2c-0.5,0.2-0.7,0.7-0.6,1.2
		c0.1,0.5,0.6,0.8,1.1,0.6c1.8-0.6,3.7-0.3,5.1,0.8v-2.2C27.1,24.8,25.1,24.6,23.1,25.2z M15.9,23.5c0.1,1.1,0.6,2.2,1.3,3
		c0.9,1.1,2.1,1.7,3.5,1.8c0,0,0,0,0,0c0.5,0,0.8-0.4,0.9-0.9c0-0.5-0.3-1-0.8-1c-0.9,0-1.7-0.5-2.3-1.2c-0.5-0.7-0.8-1.5-0.8-2.4
		c0.6-0.3,1.1-0.7,1.7-1.2c0.4-0.3,0.4-0.9,0.1-1.3c-0.3-0.4-0.9-0.5-1.2-0.1c-1.2,1.1-2.7,1.7-4.3,1.5c-1.6-0.1-3-1-4-2.3
		c-0.1-0.1-0.2-0.2-0.3-0.2c0,0.2,0.1,0.4,0.1,0.6c0.2,0.6-0.1,1.3-0.6,1.6c1.5,1.5,3.3,2.3,5.2,2.3C14.9,23.7,15.4,23.6,15.9,23.5
		L15.9,23.5z M20.5,16.3c-0.1,1.1,0.1,2.2,0.7,3.2c0.2,0.3,0.5,0.5,0.8,0.5c0.1,0,0.3,0,0.4-0.1c0.4-0.3,0.6-0.8,0.3-1.3
		c-0.4-0.8-0.6-1.8-0.3-2.7c0.2-0.9,0.8-1.7,1.5-2.2c0.4-0.3,0.6-0.8,0.3-1.3c-0.2-0.5-0.8-0.6-1.2-0.4c-0.9,0.6-1.6,1.4-2.1,2.5
		c-2-0.2-3.5-2.1-3.5-4.3c0-0.1,0-0.2-0.1-0.3c-0.1,0.1-0.1,0.3-0.2,0.4c-0.2,0.5-0.7,0.8-1.1,0.7c-0.1,0-0.2,0-0.3,0
		C16,13.8,18,15.9,20.5,16.3L20.5,16.3z"/>
	<path class="st1" d="M9.7,34c-0.1,0.1-0.3,0.2-0.4,0.2c0.2,0.1,0.3,0.3,0.4,0.5c0,0,0,0,0,0c0,0,0,0.1,0.1,0.1c0,0,0,0.1,0,0.1
		c0,0,0,0.1,0,0.1c0,0,0,0.1,0,0.1c0,0,0,0.1,0,0.1c0,0,0,0.1,0,0.1c0,0,0,0.1,0,0.1c0,0.1,0,0.2,0,0.2c0,0.1-0.1,0.3-0.1,0.4
		c0.3-0.1,0.6-0.3,0.9-0.5C10.2,35.2,9.9,34.6,9.7,34L9.7,34z"/>
	<path class="st1" d="M18,41.8c0.1-0.2,0.2-0.5,0.3-0.7c-0.5-0.5-0.9-1.1-1.1-1.8c-0.3,0.6-0.5,1.2-0.7,1.8
		c-0.4,1.1-0.6,2.3-0.7,3.4c0.1,0,0.2,0,0.3,0c0.5,0,0.9,0.2,1.1,0.7c0.1,0.2,0.2,0.4,0.3,0.5C17.4,44.4,17.6,43.1,18,41.8L18,41.8z
		"/>
	<path class="st4" d="M51.1,20.8h-4V17h4c1.1,0,1.9,0.9,1.9,1.9C53,19.9,52.1,20.8,51.1,20.8z"/>
	<path class="st5" d="M51.1,18.9h-4v1.9h4c1.1,0,1.9-0.9,1.9-1.9c0-0.3-0.1-0.7-0.3-1C52.4,18.5,51.8,18.9,51.1,18.9z"/>
	<path class="st4" d="M51.1,29.7h-4v-3.8h4c1.1,0,1.9,0.9,1.9,1.9C53,28.8,52.1,29.7,51.1,29.7z"/>
	<path class="st5" d="M51.1,27.8h-4v1.9h4c1.1,0,1.9-0.9,1.9-1.9c0-0.3-0.1-0.7-0.3-1C52.4,27.4,51.8,27.8,51.1,27.8z"/>
	<path class="st4" d="M51.1,38.6h-4v-3.8h4c1.1,0,1.9,0.9,1.9,1.9C53,37.7,52.1,38.6,51.1,38.6z"/>
	<path class="st5" d="M51.1,36.7h-4v1.9h4c1.1,0,1.9-0.9,1.9-1.9c0-0.3-0.1-0.7-0.3-1C52.4,36.3,51.8,36.7,51.1,36.7z"/>
	<path class="st4" d="M33.6,8.4v4h-1.9V6.9c0-0.2,0.2-0.4,0.4-0.3c0.3,0.1,0.7,0.3,0.9,0.5C33.4,7.4,33.6,7.9,33.6,8.4z"/>
	<path class="st4" d="M42.5,8.4v4h-3.8v-4c0-1.1,0.9-1.9,1.9-1.9C41.7,6.5,42.5,7.4,42.5,8.4z"/>
	<path class="st4" d="M33.6,43.1v4c0,0.5-0.2,1-0.6,1.3c-0.2,0.2-0.5,0.4-0.9,0.5c-0.2,0.1-0.4-0.1-0.4-0.3v-5.5L33.6,43.1z"/>
	<path class="st4" d="M42.5,47.1v-4h-3.8v4c0,1.1,0.9,1.9,1.9,1.9C41.7,49,42.5,48.2,42.5,47.1z"/>
	<path class="st4" d="M44.2,12.4H31.7v30.7h12.4c1.6,0,2.9-1.3,2.9-2.9V15.3C47.1,13.7,45.8,12.4,44.2,12.4z"/>
	<path class="st1" d="M43.2,14.9H31.7v25.8h11.4c0.8,0,1.5-0.7,1.5-1.5V16.3C44.6,15.5,44,14.9,43.2,14.9L43.2,14.9z"/>
	<g>
		<path class="st2" d="M44.6,16.3v1.5c0-0.8-0.7-1.5-1.5-1.5H31.7v-1.5h11.4C44,14.9,44.6,15.5,44.6,16.3z"/>
		<path class="st2" d="M36.7,33.5h-5v-8.6c0.3,0,0.6,0.1,0.8,0.4l0.4,0.5l2.6,3.4l1.9,2.6l0.1,0.2C38,32.6,37.5,33.5,36.7,33.5
			L36.7,33.5z"/>
		<path class="st2" d="M41.2,14.9v10.9h-9.4v-1.8h7.7v-9.2H41.2z"/>
		<path class="st2" d="M44.6,35.2v1.8H33v1.5h-1.3v-3.3H44.6z"/>
		<path class="st2" d="M36.4,38.4h1.8v2.2h-1.8V38.4z"/>
		<path class="st2" d="M37.3,14.9v6.4h-5.5v-1.8h3.8v-4.6L37.3,14.9z"/>
		<path class="st2" d="M44.6,33h-5.2v-5.4h1.8v3.7h3.5V33z"/>
		<path class="st2" d="M35.6,22.6c0,0.4-0.3,0.8-0.8,0.8s-0.8-0.3-0.8-0.8s0.3-0.8,0.8-0.8C35.3,21.8,35.6,22.1,35.6,22.6z"/>
		<path class="st2" d="M40.4,38.8c0,0.4-0.3,0.8-0.8,0.8c-0.4,0-0.8-0.3-0.8-0.8c0-0.4,0.3-0.8,0.8-0.8C40.1,38,40.4,38.3,40.4,38.8
			z"/>
	</g>
	<path class="st6" d="M37.4,31.8c-0.2,0.2-0.4,0.2-0.6,0.2h-5v-8.6c0.3,0,0.6,0.1,0.8,0.4l0.2,0.2l1.3,1.8l2.6,3.4l1,1.3
		C37.8,31,37.7,31.5,37.4,31.8z"/>
	<path class="st7" d="M37.4,31.8c-0.2,0.2-0.4,0.2-0.6,0.2h-5v-2.8h4.8l1,1.3C37.8,31,37.7,31.5,37.4,31.8L37.4,31.8z"/>
	<path class="st5" d="M31.7,43.1h1.9v2.4h-1.9V43.1z"/>
	<path class="st5" d="M38.7,43.1h3.8v2.4h-3.8V43.1z"/>
	<path class="st5" d="M31.7,10.1h1.9v2.4h-1.9V10.1z"/>
	<path class="st5" d="M38.7,10.1h3.8v2.4h-3.8V10.1z"/>
</g>
</svg>
