<?xml version="1.0" encoding="utf-8"?>
<!-- Generator: Adobe Illustrator 23.1.0, SVG Export Plug-In . SVG Version: 6.00 Build 0)  -->
<svg version="1.1" id="Layer_1" xmlns="http://www.w3.org/2000/svg" xmlns:xlink="http://www.w3.org/1999/xlink" x="0px" y="0px"
	 viewBox="0 0 58 58" style="enable-background:new 0 0 58 58;" xml:space="preserve">
<style type="text/css">
	.st0{fill:#8CC84B;}
</style>
<g>
	<path class="st0" d="M27.1,4.6C28.3,4,29.8,4,31,4.6c6,3.4,12,6.8,17.9,10.1c1.1,0.6,1.9,1.9,1.9,3.2v20.3c0,1.4-0.8,2.6-2,3.3
		c-6,3.4-11.9,6.7-17.9,10.1c-1.2,0.7-2.8,0.6-4-0.1c-1.8-1-3.6-2.1-5.4-3.1c-0.4-0.2-0.8-0.4-1-0.7c0.2-0.3,0.6-0.3,1-0.5
		c0.7-0.2,1.4-0.6,2.1-1c0.2-0.1,0.4-0.1,0.6,0c1.5,0.9,3,1.8,4.6,2.6c0.3,0.2,0.7-0.1,0.9-0.2c5.9-3.3,11.7-6.6,17.6-9.9
		c0.2-0.1,0.3-0.3,0.3-0.6c0-6.7,0-13.4,0-20.1c0-0.3-0.1-0.5-0.4-0.6c-5.9-3.3-11.9-6.7-17.8-10c-0.2-0.1-0.5-0.1-0.7,0
		c-5.9,3.3-11.9,6.7-17.8,10c-0.2,0.1-0.4,0.4-0.4,0.6c0,6.7,0,13.4,0,20.1c0,0.2,0.1,0.5,0.3,0.6c1.6,0.9,3.2,1.8,4.8,2.7
		c0.9,0.5,2,0.8,3,0.4c0.9-0.3,1.5-1.2,1.5-2.1c0-6.7,0-13.3,0-20c0-0.3,0.3-0.5,0.5-0.5c0.8,0,1.5,0,2.3,0c0.3,0,0.5,0.3,0.5,0.6
		c0,6.7,0,13.4,0,20.1c0,1.8-0.7,3.7-2.4,4.6c-2,1.1-4.6,0.8-6.6-0.2c-1.7-0.9-3.4-1.9-5.1-2.8c-1.2-0.6-2-1.9-2-3.3V18
		c0-1.3,0.8-2.6,1.9-3.2C15.1,11.4,21.1,8,27.1,4.6z"/>
	<path class="st0" d="M32.3,18.7c2.6-0.2,5.4-0.1,7.7,1.2c1.8,1,2.8,3,2.8,5.1c-0.1,0.3-0.3,0.4-0.6,0.4c-0.8,0-1.5,0-2.3,0
		c-0.3,0-0.5-0.3-0.5-0.6c-0.2-1-0.7-1.9-1.6-2.4c-1.4-0.7-3-0.7-4.5-0.6c-1.1,0.1-2.3,0.2-3.2,0.8c-0.7,0.5-0.9,1.5-0.7,2.3
		c0.2,0.6,0.9,0.8,1.5,0.9c3.1,0.8,6.5,0.7,9.5,1.8c1.3,0.4,2.5,1.3,3,2.6c0.6,1.8,0.3,3.9-1,5.4c-1,1.2-2.5,1.8-4,2.2
		c-2,0.4-4.1,0.5-6.1,0.3c-1.9-0.2-3.9-0.7-5.3-2c-1.3-1.1-1.9-2.8-1.8-4.4c0-0.3,0.3-0.5,0.6-0.4c0.8,0,1.5,0,2.3,0
		c0.3,0,0.5,0.2,0.5,0.5c0.1,0.9,0.5,1.9,1.3,2.4c1.5,1,3.5,0.9,5.2,1c1.5-0.1,3.1-0.1,4.3-1.1c0.6-0.6,0.8-1.5,0.6-2.3
		c-0.2-0.7-0.9-1-1.5-1.2c-3.1-1-6.5-0.6-9.5-1.7c-1.2-0.4-2.4-1.3-2.9-2.5c-0.7-1.8-0.4-4,1-5.4C28.4,19.5,30.4,18.9,32.3,18.7
		L32.3,18.7z"/>
</g>
</svg>
