<?xml version="1.0" encoding="utf-8"?>
<!-- Generator: Adobe Illustrator 23.1.0, SVG Export Plug-In . SVG Version: 6.00 Build 0)  -->
<svg version="1.1" id="Layer_1" xmlns="http://www.w3.org/2000/svg" xmlns:xlink="http://www.w3.org/1999/xlink" x="0px" y="0px"
	 viewBox="0 0 58 58" style="enable-background:new 0 0 58 58;" xml:space="preserve">
<style type="text/css">
	.st0{fill:#CF649A;}
</style>
<path class="st0" d="M46.3,31.7c-1.7,0-3.1,0.4-4.4,1c-0.5-0.9-0.9-1.7-1-2.3c-0.1-0.7-0.2-1.1-0.1-1.9c0.1-0.8,0.6-2,0.6-2
	c0-0.1-0.1-0.5-1.1-0.5s-1.8,0.2-1.9,0.4s-0.3,0.8-0.4,1.4c-0.2,0.9-1.9,4-2.9,5.6c-0.3-0.6-0.6-1.2-0.7-1.7
	c-0.1-0.7-0.2-1.1-0.1-1.9c0.1-0.8,0.6-2,0.6-2c0-0.1-0.1-0.5-1.1-0.5c-1,0-1.8,0.2-1.9,0.4c-0.1,0.3-0.2,0.9-0.4,1.4
	c-0.2,0.6-2.5,5.8-3.2,7.2c-0.3,0.7-0.6,1.2-0.8,1.6c-0.2,0.4,0,0,0,0.1c-0.2,0.3-0.3,0.5-0.3,0.5v0c-0.1,0.2-0.3,0.5-0.3,0.5
	c0,0-0.1-0.6,0-1.5c0.3-1.8,1.2-4.6,1.2-4.7c0,0,0.2-0.5-0.5-0.8c-0.7-0.3-0.9,0.2-1,0.2c-0.1,0-0.1,0.2-0.1,0.2s0.8-3.2-1.5-3.2
	c-1.4,0-3.3,1.5-4.2,2.9c-0.6,0.3-1.9,1-3.2,1.8c-0.5,0.3-1.1,0.6-1.6,0.9l-0.1-0.1c-2.7-2.9-7.6-4.9-7.4-8.7
	c0.1-1.4,0.6-5.1,9.5-9.5c7.3-3.7,13.2-2.7,14.2-0.4c1.5,3.2-3.1,9.1-10.8,10c-2.9,0.3-4.4-0.8-4.8-1.2c-0.4-0.4-0.5-0.5-0.6-0.4
	c-0.2,0.1-0.1,0.5,0,0.8c0.2,0.6,1.2,1.6,2.8,2.2c1.4,0.5,4.8,0.7,8.9-0.9c4.6-1.8,8.2-6.8,7.2-10.9C34,11.2,27,9.8,20.3,12.2
	c-3.9,1.4-8.2,3.6-11.3,6.5C5.4,22,4.8,25,5,26.3c0.9,4.4,6.9,7.3,9.4,9.4c-0.1,0.1-0.2,0.1-0.3,0.2c-1.2,0.6-5.9,3-7,5.6
	c-1.3,2.9,0.2,5,1.2,5.3c3.1,0.9,6.3-0.7,8.1-3.3c1.7-2.6,1.5-5.9,0.7-7.5l0-0.1l1-0.6c0.6-0.4,1.2-0.7,1.8-1
	c-0.3,0.8-0.5,1.8-0.6,3.2c-0.1,1.7,0.5,3.8,1.4,4.6c0.4,0.4,0.9,0.4,1.2,0.4c1,0,1.5-0.9,2-1.9c0.6-1.2,1.2-2.7,1.2-2.7
	s-0.7,3.9,1.2,3.9c0.7,0,1.4-0.9,1.7-1.4v0c0,0,0,0,0.1-0.1c0-0.1,0.1-0.1,0.1-0.2v0c0.3-0.5,0.9-1.6,1.8-3.5
	c1.2-2.4,2.4-5.4,2.4-5.4s0.1,0.7,0.5,1.9c0.2,0.7,0.7,1.5,1,2.3c-0.3,0.4-0.5,0.6-0.5,0.6l0,0c-0.2,0.3-0.5,0.6-0.7,0.9
	c-1,1.1-2.1,2.4-2.3,2.8c-0.2,0.4-0.1,0.8,0.2,1c0.3,0.2,0.7,0.2,1.2,0.2c0.9-0.1,1.5-0.3,1.8-0.4c0.5-0.2,1-0.4,1.5-0.8
	c0.9-0.7,1.5-1.7,1.5-3c0-0.7-0.3-1.4-0.6-2.1c0.1-0.1,0.2-0.2,0.3-0.4c1.5-2.2,2.6-4.5,2.6-4.5s0.1,0.7,0.5,1.9
	c0.2,0.6,0.5,1.3,0.9,1.9c-1.4,1.1-2.3,2.4-2.6,3.3c-0.6,1.6-0.1,2.3,0.7,2.5c0.4,0.1,0.9-0.1,1.3-0.3c0.5-0.2,1.1-0.4,1.6-0.8
	c0.9-0.7,1.8-1.7,1.8-3c0-0.6-0.2-1.2-0.4-1.8c1.2-0.5,2.7-0.8,4.7-0.5c4.2,0.5,5,3.1,4.8,4.2c-0.2,1.1-1,1.7-1.3,1.9
	c-0.3,0.2-0.4,0.2-0.4,0.4c0,0.2,0.2,0.2,0.4,0.2c0.3-0.1,2.2-0.9,2.3-2.9C53.1,34.5,50.7,31.6,46.3,31.7L46.3,31.7z M14.1,42.5
	c-1.4,1.5-3.3,2.1-4.1,1.6c-0.9-0.5-0.5-2.7,1.2-4.3c1-1,2.4-1.9,3.3-2.4c0.2-0.1,0.5-0.3,0.9-0.5c0.1,0,0.1-0.1,0.1-0.1
	c0.1,0,0.1-0.1,0.2-0.1C16.2,38.9,15.6,40.9,14.1,42.5L14.1,42.5z M24.2,35.7c-0.5,1.2-1.5,4.2-2.1,4c-0.5-0.1-0.8-2.4-0.1-4.7
	c0.4-1.1,1.2-2.5,1.6-3c0.8-0.8,1.6-1.1,1.8-0.8C25.7,31.7,24.5,34.9,24.2,35.7z M32.5,39.6c-0.2,0.1-0.4,0.2-0.5,0.1
	c-0.1,0,0.1-0.2,0.1-0.2s1-1.1,1.5-1.6c0.2-0.3,0.5-0.6,0.8-1V37C34.4,38.4,33.1,39.3,32.5,39.6L32.5,39.6z M39,38.2
	c-0.2-0.1-0.1-0.5,0.4-1.5c0.2-0.4,0.6-1.2,1.4-1.8c0.1,0.3,0.2,0.6,0.1,0.8C40.9,37.3,39.7,37.9,39,38.2z"/>
</svg>
