<?xml version="1.0" encoding="utf-8"?>
<!-- Generator: Adobe Illustrator 23.1.0, SVG Export Plug-In . SVG Version: 6.00 Build 0)  -->
<svg version="1.1" id="Layer_1" xmlns="http://www.w3.org/2000/svg" xmlns:xlink="http://www.w3.org/1999/xlink" x="0px" y="0px"
	 viewBox="0 0 58 58" style="enable-background:new 0 0 58 58;" xml:space="preserve">
<style type="text/css">
	.st0{fill:#AAB2BD;}
	.st1{fill:#656D78;}
	.st2{fill:#EAC6BB;}
	.st3{fill:#D3B1A9;}
	.st4{fill:#AC92EC;}
	.st5{fill:#E6E9ED;}
	.st6{fill:#773E3E;}
	.st7{fill:#965353;}
	.st8{fill:#844747;}
	.st9{fill:#545C66;}
</style>
<path class="st0" d="M18.3,30.1c0,0.3,0,0.5,0.1,0.7l-0.1,0h-0.7h-2.3v-6.9h3V30.1z"/>
<path class="st1" d="M39.7,24.1v6.1c0,0.3,0,0.5-0.1,0.7c-0.3,0.9-1.2,1.6-2.2,1.6H20.6c-1,0-1.9-0.7-2.2-1.6
	c-0.1-0.2-0.1-0.5-0.1-0.7v-6.1v0c0-1.3,1-2.3,2.3-2.3h16.8C38.6,21.8,39.7,22.8,39.7,24.1L39.7,24.1z"/>
<path class="st2" d="M37.4,32.4c1,0,1.9-0.7,2.2-1.6l0.1,0h0.7c-0.3,4.4-3,8-6.8,9.7c-1.4,0.6-2.9,1-4.6,1s-3.2-0.3-4.6-1
	c-3.8-1.7-6.5-5.4-6.8-9.7h0.7l0.1,0c0.3,0.9,1.2,1.6,2.2,1.6H37.4z"/>
<path class="st3" d="M39.7,30.9l-0.1,0c-0.3,0.9-1.2,1.6-2.2,1.6h-0.2c-0.7,3.7-3.3,6.7-6.6,8.2c-1,0.4-2,0.7-3,0.8
	c0.5,0.1,1,0.1,1.5,0.1c1.6,0,3.2-0.3,4.6-1c3.8-1.7,6.5-5.4,6.8-9.7L39.7,30.9z"/>
<path class="st4" d="M19.9,44.6l9.1,6.1V53H13.8v-3.8c0-1.4,0.6-2.6,1.5-3.4c0.8-0.7,1.9-1.2,3-1.2L19.9,44.6L19.9,44.6z"/>
<path class="st0" d="M40.4,30.9h-0.7l-0.1,0c0.1-0.2,0.1-0.5,0.1-0.7v-6.1h3v6.9L40.4,30.9z"/>
<path class="st2" d="M33.6,40.6v4l-4.6,3l-4.6-3v-4c1.4,0.6,2.9,1,4.6,1S32.2,41.2,33.6,40.6z"/>
<path class="st4" d="M39.7,44.6c1.2,0,2.2,0.4,3,1.2c0.9,0.8,1.5,2.1,1.5,3.4V53H29v-2.3l9.1-6.1v0H39.7z"/>
<path class="st5" d="M38.1,44.6L38.1,44.6L29,50.7l-9.1-6.1v0h4.6l4.6,3l4.6-3H38.1z"/>
<path class="st6" d="M24.4,40.6v4h-4.6h-1.5c-1.2,0-2.2,0.4-3,1.2V30.9h2.3C17.9,35.3,20.6,39,24.4,40.6z"/>
<path class="st6" d="M42.7,30.9v14.9c-0.8-0.7-1.9-1.2-3-1.2h-1.5h-4.6v-4c3.8-1.7,6.5-5.4,6.8-9.7H42.7z"/>
<path class="st7" d="M15.3,24.1c0-7.6,6.1-13.7,13.7-13.7s13.7,6.1,13.7,13.7h-3v0c0-1.3-1-2.3-2.3-2.3H20.6c-1.3,0-2.3,1-2.3,2.3v0
	H15.3z"/>
<path class="st8" d="M42.7,24.1c0-7.6-6.1-13.7-13.7-13.7c-0.5,0-1,0-1.5,0.1C34.3,11.2,39.6,17,39.7,24c0,0,0,0,0,0.1v0L42.7,24.1z
	"/>
<g>
	<path class="st1" d="M47.3,24.8c-0.4,0-0.8-0.3-0.8-0.8c0-9.7-7.9-17.5-17.5-17.5s-17.5,7.9-17.5,17.5c0,0.4-0.3,0.8-0.8,0.8
		c-0.4,0-0.8-0.3-0.8-0.8C10,13.5,18.5,5,29,5s19,8.5,19,19.1C48.1,24.5,47.7,24.8,47.3,24.8z"/>
	<path class="st1" d="M47.3,24.8c-0.2,0-0.3-0.1-0.5-0.2l-2.3-1.9c-0.3-0.3-0.4-0.7-0.1-1.1c0.3-0.3,0.7-0.4,1.1-0.1l2.3,1.9
		c0.3,0.3,0.4,0.7,0.1,1.1C47.7,24.7,47.5,24.8,47.3,24.8z"/>
	<path class="st1" d="M47.3,24.8c-0.2,0-0.3-0.1-0.5-0.2c-0.3-0.3-0.4-0.7-0.1-1.1l1.9-2.3c0.3-0.3,0.7-0.4,1.1-0.1
		c0.3,0.3,0.4,0.7,0.1,1.1l-1.9,2.3C47.7,24.7,47.5,24.8,47.3,24.8L47.3,24.8z"/>
	<path class="st1" d="M10.7,24.8c-0.2,0-0.4-0.1-0.6-0.3c-0.3-0.3-0.2-0.8,0.1-1.1l2.3-1.9c0.3-0.3,0.8-0.2,1.1,0.1
		c0.3,0.3,0.2,0.8-0.1,1.1l-2.3,1.9C11.1,24.8,10.9,24.8,10.7,24.8z"/>
	<path class="st1" d="M10.7,24.8c-0.2,0-0.4-0.1-0.6-0.3l-1.9-2.3C8,21.9,8,21.4,8.3,21.2c0.3-0.3,0.8-0.2,1.1,0.1l1.9,2.3
		c0.3,0.3,0.2,0.8-0.1,1.1C11.1,24.8,10.9,24.8,10.7,24.8L10.7,24.8z"/>
</g>
<path class="st9" d="M35.5,27.9h-13c-0.4,0-0.8-0.3-0.8-0.8c0-0.4,0.3-0.8,0.8-0.8h13c0.4,0,0.8,0.3,0.8,0.8
	C36.2,27.5,35.9,27.9,35.5,27.9z"/>
</svg>
