<?xml version="1.0" encoding="utf-8"?>
<!-- Generator: Adobe Illustrator 23.1.0, SVG Export Plug-In . SVG Version: 6.00 Build 0)  -->
<svg version="1.1" id="Layer_1" xmlns="http://www.w3.org/2000/svg" xmlns:xlink="http://www.w3.org/1999/xlink" x="0px" y="0px"
	 viewBox="0 0 524.7 755.4" style="enable-background:new 0 0 524.7 755.4;" xml:space="preserve">
<style type="text/css">
	.st0{fill:none;}
	.st1{fill:#707070;}
	.st2{opacity:0.5;}
	.st3{fill:url(#New_Pattern_2);}
	.st4{opacity:0.8;fill:url(#New_Pattern_2);}
</style>
<pattern  y="755.4" width="10" height="10" patternUnits="userSpaceOnUse" id="New_Pattern_2" viewBox="0 -10 10 10" style="overflow:visible;">
	<g>
		<rect y="-10" class="st0" width="10" height="10"/>
		<g>
			<rect y="-10" class="st0" width="10" height="10"/>
			<path class="st1" d="M5.3-4.8h3.2v-0.5H5.3V-4.8z"/>
			<path class="st1" d="M1.5-4.8h3.2v-0.5H1.5V-4.8z"/>
			<path class="st1" d="M5.3-1.6H4.8v-7h0.5V-1.6z"/>
		</g>
	</g>
</pattern>
<rect x="-219.7" y="-67.7" class="st0" width="964.1" height="925.4"/>
<g class="st2">
	<polygon class="st3" points="522.4,516.8 410.6,516.8 207.1,16 320.6,16 	"/>
	<polygon class="st3" points="6.4,516.8 118.3,516.8 321.7,16 208.2,16 	"/>
	<polygon class="st4" points="270.8,626.4 125.6,626.4 198.2,447.2 270.8,268 	"/>
	<polygon class="st4" points="270.8,626.4 416.1,626.4 343.4,447.2 270.8,268 	"/>
</g>
</svg>
