<?xml version="1.0" encoding="utf-8"?>
<!-- Generator: Adobe Illustrator 23.1.0, SVG Export Plug-In . SVG Version: 6.00 Build 0)  -->
<svg version="1.1" id="Layer_1" xmlns="http://www.w3.org/2000/svg" xmlns:xlink="http://www.w3.org/1999/xlink" x="0px" y="0px"
	 viewBox="0 0 58 58" style="enable-background:new 0 0 58 58;" xml:space="preserve">
<style type="text/css">
	.st0{fill:#FFFFFF;}
	.st1{fill:#53C1DE;}
</style>
<g>
	<path class="st0" d="M5,28.9c0,3.6,3.5,7,9.1,8.9C13,43.4,13.9,48,17,49.7c3.1,1.8,7.8,0.6,12.3-3.3c4.3,3.7,8.7,5.2,11.8,3.4
		c3.1-1.8,4.1-6.6,2.9-12.4c5.8-1.9,9.1-4.8,9.1-8.5c0-3.5-3.5-6.6-9.1-8.5c1.2-6,0.2-10.4-3-12.3c-3.1-1.8-7.5-0.2-11.9,3.6
		c-4.6-4.1-9-5.3-12.1-3.5c-3.1,1.8-3.9,6.4-2.8,12.1C8.7,22.3,5,25.4,5,28.9z"/>
	<path class="st1" d="M42.8,22.3c-0.5-0.2-0.9-0.3-1.4-0.4c0.1-0.3,0.1-0.6,0.2-0.9c1-5,0.4-9.1-2-10.4c-2.2-1.3-5.9,0.1-9.5,3.3
		c-0.4,0.3-0.7,0.6-1.1,1c-0.2-0.2-0.5-0.4-0.7-0.7c-3.8-3.4-7.7-4.9-10-3.5c-2.2,1.3-2.9,5.1-1.9,9.9c0.1,0.5,0.2,0.9,0.3,1.4
		c-0.5,0.2-1.1,0.3-1.6,0.5c-4.5,1.6-7.4,4-7.4,6.6c0,2.6,3.1,5.3,7.8,6.9c0.4,0.1,0.8,0.2,1.2,0.4c-0.1,0.5-0.2,1-0.3,1.5
		c-0.9,4.7-0.2,8.4,2,9.7c2.3,1.3,6.1,0,9.9-3.3c0.3-0.3,0.6-0.5,0.9-0.8c0.4,0.4,0.8,0.7,1.2,1.1c3.6,3.1,7.2,4.4,9.4,3.1
		c2.3-1.3,3-5.3,2.1-10.2c-0.1-0.4-0.2-0.8-0.3-1.1c0.3-0.1,0.5-0.2,0.8-0.2c4.9-1.6,8.1-4.2,8.1-6.9C50.4,26.4,47.4,23.9,42.8,22.3
		L42.8,22.3z"/>
	<path class="st0" d="M41.7,34.1c-0.2,0.1-0.5,0.2-0.7,0.2c-0.5-1.7-1.3-3.5-2.2-5.4c0.9-1.8,1.6-3.6,2.1-5.3
		c0.4,0.1,0.9,0.3,1.3,0.4c3.9,1.4,6.4,3.4,6.4,4.9C48.5,30.6,45.9,32.7,41.7,34.1L41.7,34.1z M40,37.6c0.4,2.2,0.5,4.1,0.2,5.6
		c-0.3,1.4-0.8,2.3-1.4,2.6c-1.3,0.8-4.2-0.2-7.3-2.9c-0.4-0.3-0.7-0.6-1.1-1c1.2-1.3,2.4-2.8,3.6-4.5c2.1-0.2,4-0.5,5.8-0.9
		C39.8,36.9,39.9,37.3,40,37.6L40,37.6z M22.3,45.7c-1.3,0.5-2.4,0.5-3,0.1c-1.3-0.8-1.9-3.8-1.1-7.8c0.1-0.5,0.2-0.9,0.3-1.4
		c1.7,0.4,3.7,0.7,5.7,0.8c1.2,1.7,2.4,3.2,3.7,4.5c-0.3,0.3-0.5,0.5-0.8,0.7C25.4,44.2,23.7,45.2,22.3,45.7L22.3,45.7z M16.1,34.1
		c-2.1-0.7-3.8-1.6-5-2.6c-1.1-0.9-1.6-1.8-1.6-2.5c0-1.6,2.3-3.5,6.2-4.9c0.5-0.2,1-0.3,1.5-0.5c0.5,1.7,1.2,3.5,2.1,5.4
		c-0.9,1.9-1.6,3.7-2.1,5.5C16.8,34.3,16.5,34.2,16.1,34.1z M18.2,20.1c-0.8-4.1-0.3-7.2,1.1-8c1.4-0.8,4.6,0.4,7.9,3.3
		c0.2,0.2,0.4,0.4,0.6,0.6c-1.2,1.3-2.5,2.8-3.6,4.5c-2,0.2-3.9,0.5-5.7,0.9C18.4,21,18.3,20.5,18.2,20.1L18.2,20.1z M36.6,24.6
		c-0.4-0.7-0.8-1.4-1.3-2.1c1.4,0.2,2.7,0.4,3.9,0.7c-0.4,1.2-0.8,2.4-1.4,3.7C37.4,26.1,37,25.4,36.6,24.6L36.6,24.6z M29.1,17.3
		c0.8,0.9,1.7,1.9,2.5,3c-1.7-0.1-3.4-0.1-5,0C27.4,19.3,28.2,18.2,29.1,17.3L29.1,17.3z M21.5,24.6c-0.4,0.7-0.8,1.5-1.2,2.2
		c-0.5-1.3-1-2.5-1.4-3.7c1.2-0.3,2.5-0.5,3.9-0.7C22.4,23.2,21.9,23.9,21.5,24.6z M22.9,35.5c-1.4-0.2-2.7-0.4-3.9-0.6
		c0.4-1.2,0.8-2.5,1.4-3.8c0.4,0.7,0.8,1.5,1.2,2.2C22,34.1,22.4,34.8,22.9,35.5z M29.1,40.7c-0.9-0.9-1.7-2-2.6-3.1
		c0.8,0,1.6,0,2.5,0c0.9,0,1.7,0,2.6-0.1C30.8,38.7,30,39.8,29.1,40.7z M37.8,31.1c0.6,1.3,1.1,2.6,1.4,3.7c-1.2,0.3-2.6,0.5-4,0.7
		c0.5-0.7,0.9-1.4,1.3-2.2C37,32.6,37.4,31.8,37.8,31.1L37.8,31.1z M35,32.4c-0.6,1.1-1.3,2.2-2,3.3c-1.3,0.1-2.6,0.1-3.9,0.1
		c-1.3,0-2.6,0-3.9-0.1c-0.7-1.1-1.4-2.2-2.1-3.3c-0.6-1.1-1.3-2.3-1.8-3.4c0.6-1.2,1.2-2.3,1.8-3.4v0c0.6-1.1,1.3-2.2,2.1-3.3
		c1.3-0.1,2.6-0.1,3.9-0.1c1.3,0,2.6,0.1,3.9,0.1c0.7,1.1,1.4,2.2,2.1,3.3c0.6,1.1,1.3,2.3,1.8,3.4C36.3,30.1,35.6,31.3,35,32.4
		L35,32.4z M38.8,12.1c1.4,0.8,2,4.1,1.1,8.5c-0.1,0.3-0.1,0.6-0.2,0.8c-1.8-0.4-3.7-0.7-5.7-0.9c-1.2-1.7-2.4-3.2-3.6-4.5
		c0.3-0.3,0.6-0.6,1-0.9C34.5,12.4,37.4,11.3,38.8,12.1L38.8,12.1z"/>
	<path class="st1" d="M29,25.1c2.1,0,3.8,1.7,3.8,3.8c0,2.1-1.7,3.8-3.8,3.8c-2.1,0-3.8-1.7-3.8-3.8C25.2,26.8,26.9,25.1,29,25.1"/>
</g>
</svg>
