<?xml version="1.0" encoding="utf-8"?>
<!-- Generator: Adobe Illustrator 23.1.0, SVG Export Plug-In . SVG Version: 6.00 Build 0)  -->
<svg version="1.1" id="Layer_1" xmlns="http://www.w3.org/2000/svg" xmlns:xlink="http://www.w3.org/1999/xlink" x="0px" y="0px"
	 viewBox="0 0 58 58" style="enable-background:new 0 0 58 58;" xml:space="preserve">
<style type="text/css">
	.st0{fill:url(#SVGID_1_);}
	.st1{fill:url(#SVGID_2_);}
	.st2{fill:#FFFFFF;}
</style>
<g>
	
		<linearGradient id="SVGID_1_" gradientUnits="userSpaceOnUse" x1="-2000.9087" y1="-782.6879" x2="-1999.9807" y2="-777.4247" gradientTransform="matrix(-9.7656 0 0 9.7656 -19506.5664 7646.7349)">
		<stop  offset="0" style="stop-color:#FAAE42"/>
		<stop  offset="1" style="stop-color:#EF3E31"/>
	</linearGradient>
	<path class="st0" d="M15.7,5h26.6c1.3,0,2.5,0.2,3.8,0.6c1.8,0.6,3.4,1.8,4.6,3.2c1.2,1.5,2,3.3,2.3,5.1c0.1,0.7,0.1,1.4,0.1,2.1
		V42c0,0.8,0,1.7-0.2,2.5c-0.4,1.9-1.3,3.6-2.5,5c-1.3,1.4-2.9,2.5-4.7,3c-1.1,0.3-2.2,0.5-3.4,0.5c-0.5,0-26.6,0-27,0
		c-1.9-0.1-3.8-0.7-5.4-1.8c-1.6-1-2.8-2.5-3.7-4.2c-0.7-1.4-1.1-3.1-1.1-4.7V15.7c0-1.6,0.3-3.2,1-4.6c0.8-1.7,2.1-3.2,3.6-4.2
		c1.6-1.1,3.5-1.7,5.4-1.8C15.3,5,15.5,5,15.7,5z"/>
	
		<linearGradient id="SVGID_2_" gradientUnits="userSpaceOnUse" x1="-244.7186" y1="387.929" x2="-245.3982" y2="384.0746" gradientTransform="matrix(9.7656 0 0 -9.7656 2419.3125 3794.1563)">
		<stop  offset="0" style="stop-color:#E39F3A"/>
		<stop  offset="1" style="stop-color:#D33929"/>
	</linearGradient>
	<path class="st1" d="M45.5,44.3c-0.2-0.3-0.4-0.5-0.6-0.8c-0.5-0.6-1-1-1.6-1.5c-0.7-0.5-1.6-0.8-2.5-0.9c-0.6,0-1.3,0.1-1.9,0.3
		c-0.6,0.2-1.2,0.5-1.7,0.8c-0.7,0.3-1.3,0.7-2,1c-0.8,0.3-1.7,0.6-2.6,0.8c-1.1,0.2-2.2,0.3-3.3,0.3c-2,0-4-0.3-5.9-0.9
		c-1.7-0.5-3.3-1.2-4.8-2.1c-1.3-0.8-2.6-1.6-3.7-2.6c-1-0.8-1.8-1.7-2.7-2.6c-0.6-0.7-1.1-1.3-1.6-2.1c-0.2-0.3-0.4-0.6-0.6-0.9
		L5,27.7V15.6C5,9.8,9.7,5,15.6,5h9.5l7,7.1c15.8,10.8,10.7,22.6,10.7,22.6S47.3,39.8,45.5,44.3z"/>
	<path class="st2" d="M32.1,12.1c15.8,10.8,10.7,22.6,10.7,22.6s4.5,5.1,2.7,9.5c0,0-1.9-3.1-5-3.1c-3,0-4.8,3.1-10.8,3.1
		C16.3,44.3,9.9,33,9.9,33c12.1,8,20.4,2.3,20.4,2.3c-5.5-3.2-17.1-18.3-17.1-18.3c10.1,8.6,14.5,10.9,14.5,10.9
		c-2.6-2.2-9.9-12.7-9.9-12.7c5.8,5.9,17.5,14.2,17.5,14.2C38.6,20.3,32.1,12.1,32.1,12.1z"/>
</g>
</svg>
