<?xml version="1.0" encoding="utf-8"?>
<!-- Generator: Adobe Illustrator 23.1.0, SVG Export Plug-In . SVG Version: 6.00 Build 0)  -->
<svg version="1.1" id="Layer_1" xmlns="http://www.w3.org/2000/svg" xmlns:xlink="http://www.w3.org/1999/xlink" x="0px" y="0px"
	 viewBox="0 0 58 58" style="enable-background:new 0 0 58 58;" xml:space="preserve">
<style type="text/css">
	.st0{fill-rule:evenodd;clip-rule:evenodd;fill:#364548;}
	.st1{fill-rule:evenodd;clip-rule:evenodd;fill:#22A0C8;}
	.st2{fill-rule:evenodd;clip-rule:evenodd;fill:#37B1D9;}
	.st3{fill-rule:evenodd;clip-rule:evenodd;fill:#1B81A5;}
	.st4{fill-rule:evenodd;clip-rule:evenodd;fill:#1D91B4;}
	.st5{fill-rule:evenodd;clip-rule:evenodd;fill:#23A3C2;}
	.st6{fill-rule:evenodd;clip-rule:evenodd;fill:#34BBDE;}
	.st7{fill-rule:evenodd;clip-rule:evenodd;fill:#D3ECEC;}
	.st8{fill-rule:evenodd;clip-rule:evenodd;fill:#BDD9D7;}
</style>
<g>
	<path class="st0" d="M32.9,23.8h4.5v4.6h2.3c1,0,2.1-0.2,3.1-0.5c0.5-0.2,1-0.4,1.5-0.7c-0.6-0.8-1-1.9-1.1-2.9
		c-0.1-1.4,0.2-3.2,1.1-4.3l0.5-0.5l0.6,0.5c1.4,1.1,2.6,2.7,2.8,4.5c1.7-0.5,3.7-0.4,5.2,0.5l0.6,0.4l-0.3,0.6
		c-1.3,2.5-3.9,3.2-6.5,3.1c-3.9,9.7-12.3,14.2-22.6,14.2c-5.3,0-10.1-2-12.9-6.7l0-0.1l-0.4-0.8c-0.9-2.1-1.2-4.3-1-6.6l0.1-0.7
		h3.8v-4.6h4.5v-4.5h9v-4.5h5.4V23.8"/>
	<path class="st1" d="M47.4,25.5c0.3-2.3-1.4-4.2-2.5-5c-1.2,1.4-1.4,5.2,0.5,6.8c-1.1,1-3.4,1.9-5.8,1.9H10.9
		c-0.2,2.5,0.2,4.7,1.2,6.7l0.3,0.6c0.2,0.4,0.4,0.7,0.7,1c1.2,0.1,2.3,0.1,3.3,0.1h0c2,0,3.6-0.3,4.8-0.7c0.2-0.1,0.4,0,0.4,0.2
		c0.1,0.2,0,0.4-0.2,0.4c-0.2,0.1-0.3,0.1-0.5,0.2h0c-1,0.3-2,0.5-3.3,0.5c0.1,0-0.1,0-0.1,0c0,0-0.1,0-0.1,0c-0.5,0-1.1,0-1.7,0
		c-0.6,0-1.2,0-1.9,0l0,0c2.4,2.7,6.1,4.3,10.8,4.3c9.9,0,18.4-4.4,22.1-14.3c2.6,0.3,5.2-0.4,6.3-2.7
		C51.2,24.4,48.8,24.8,47.4,25.5"/>
	<path class="st2" d="M47.4,25.5c0.3-2.3-1.4-4.2-2.5-5c-1.2,1.4-1.4,5.2,0.5,6.8c-1.1,1-3.4,1.9-5.8,1.9h-27
		c-0.1,3.8,1.3,6.6,3.8,8.4h0c2,0,3.6-0.3,4.8-0.7c0.2-0.1,0.4,0,0.4,0.2c0.1,0.2,0,0.4-0.2,0.4c-0.2,0.1-0.3,0.1-0.5,0.2h0
		c-1,0.3-2.1,0.5-3.4,0.6c0,0,0,0,0,0c3.4,1.7,8.3,1.7,13.9-0.4c6.3-2.4,12.2-7,16.2-12.3C47.6,25.4,47.5,25.4,47.4,25.5"/>
	<path class="st3" d="M11,32.1c0.2,1.3,0.6,2.6,1.1,3.7l0.3,0.6c0.2,0.4,0.4,0.7,0.7,1c1.2,0.1,2.3,0.1,3.3,0.1c2,0,3.6-0.3,4.8-0.7
		c0.2-0.1,0.4,0,0.4,0.2c0.1,0.2,0,0.4-0.2,0.4c-0.2,0.1-0.3,0.1-0.5,0.2h0c-1,0.3-2.1,0.5-3.4,0.5c0,0-0.1,0-0.2,0
		c-0.5,0-1.1,0-1.6,0c-0.6,0-1.3,0-2,0c2.4,2.7,6.2,4.3,10.9,4.3c8.5,0,15.9-3.2,20.2-10.4H11"/>
	<path class="st4" d="M12.9,32.1c0.5,2.3,1.7,4.1,3.5,5.4c2,0,3.6-0.3,4.8-0.7c0.2-0.1,0.4,0,0.4,0.2c0.1,0.2,0,0.4-0.2,0.4
		c-0.2,0.1-0.3,0.1-0.5,0.2h0c-1,0.3-2.1,0.5-3.4,0.5c3.4,1.7,8.3,1.7,13.9-0.4c3.4-1.3,6.7-3.2,9.6-5.6H12.9"/>
	<path class="st5" d="M14.8,24.5h3.9v3.9h-3.9V24.5z M15.2,24.8h0.3v3.2h-0.3V24.8z M15.7,24.8h0.3v3.2h-0.3L15.7,24.8L15.7,24.8z
		 M16.3,24.8h0.3v3.2h-0.3V24.8z M16.9,24.8h0.3v3.2h-0.3V24.8z M17.5,24.8h0.3v3.2h-0.3L17.5,24.8L17.5,24.8z M18.1,24.8h0.3v3.2
		h-0.3V24.8z M19.3,20h3.9v3.9h-3.9L19.3,20L19.3,20z M19.6,20.4h0.3v3.2h-0.3V20.4z M20.2,20.4h0.3v3.2h-0.3L20.2,20.4L20.2,20.4z
		 M20.8,20.4h0.3v3.2h-0.3V20.4z M21.4,20.4h0.3v3.2h-0.3V20.4z M22,20.4h0.3v3.2H22V20.4z M22.6,20.4h0.3v3.2h-0.3V20.4z"/>
	<path class="st6" d="M19.3,24.5h3.9v3.9h-3.9L19.3,24.5L19.3,24.5z M19.6,24.8h0.3v3.2h-0.3V24.8z M20.2,24.8h0.3v3.2h-0.3
		L20.2,24.8L20.2,24.8z M20.8,24.8h0.3v3.2h-0.3V24.8z M21.4,24.8h0.3v3.2h-0.3V24.8z M22,24.8h0.3v3.2H22V24.8z M22.6,24.8h0.3v3.2
		h-0.3V24.8z"/>
	<path class="st5" d="M23.8,24.5h3.9v3.9h-3.9V24.5z M24.1,24.8h0.3v3.2h-0.3V24.8z M24.7,24.8H25v3.2h-0.3V24.8z M25.3,24.8h0.3
		v3.2h-0.3V24.8z M25.9,24.8h0.3v3.2h-0.3V24.8z M26.5,24.8h0.3v3.2h-0.3V24.8z M27.1,24.8h0.3v3.2h-0.3V24.8z"/>
	<path class="st6" d="M23.8,20h3.9v3.9h-3.9V20z M24.1,20.4h0.3v3.2h-0.3V20.4z M24.7,20.4H25v3.2h-0.3V20.4z M25.3,20.4h0.3v3.2
		h-0.3V20.4z M25.9,20.4h0.3v3.2h-0.3V20.4z M26.5,20.4h0.3v3.2h-0.3V20.4z M27.1,20.4h0.3v3.2h-0.3V20.4z M28.3,24.5h3.9v3.9h-3.9
		V24.5z M28.6,24.8h0.3v3.2h-0.3V24.8z M29.2,24.8h0.3v3.2h-0.3V24.8z M29.8,24.8h0.3v3.2h-0.3V24.8z M30.4,24.8h0.3v3.2h-0.3V24.8z
		 M30.9,24.8h0.3v3.2h-0.3V24.8z M31.5,24.8h0.3v3.2h-0.3V24.8z"/>
	<path class="st5" d="M28.3,20h3.9v3.9h-3.9V20z M28.6,20.4h0.3v3.2h-0.3V20.4z M29.2,20.4h0.3v3.2h-0.3V20.4z M29.8,20.4h0.3v3.2
		h-0.3V20.4z M30.4,20.4h0.3v3.2h-0.3V20.4z M30.9,20.4h0.3v3.2h-0.3V20.4z M31.5,20.4h0.3v3.2h-0.3V20.4z"/>
	<path class="st6" d="M28.3,15.6h3.9v3.9h-3.9V15.6z M28.6,15.9h0.3v3.2h-0.3V15.9L28.6,15.9z M29.2,15.9h0.3v3.2h-0.3V15.9
		L29.2,15.9z M29.8,15.9h0.3v3.2h-0.3V15.9L29.8,15.9z M30.4,15.9h0.3v3.2h-0.3V15.9L30.4,15.9z M30.9,15.9h0.3v3.2h-0.3V15.9
		L30.9,15.9z M31.5,15.9h0.3v3.2h-0.3V15.9L31.5,15.9z"/>
	<path class="st5" d="M32.8,24.5h3.9v3.9h-3.9V24.5z M33.1,24.8h0.3v3.2h-0.3L33.1,24.8L33.1,24.8z M33.7,24.8H34v3.2h-0.3
		L33.7,24.8L33.7,24.8z M34.3,24.8h0.3v3.2h-0.3V24.8z M34.8,24.8h0.3v3.2h-0.3V24.8z M35.4,24.8h0.3v3.2h-0.3V24.8z M36,24.8h0.3
		v3.2H36V24.8z"/>
	<path class="st7" d="M23,34.7c0.6,0,1.1,0.5,1.1,1.1c0,0.6-0.5,1.1-1.1,1.1c0,0,0,0,0,0c-0.6,0-1.1-0.5-1.1-1.1
		C21.9,35.2,22.4,34.7,23,34.7"/>
	<path class="st0" d="M23,35c0.1,0,0.2,0,0.3,0.1c-0.1,0.1-0.2,0.3-0.1,0.4c0.1,0.1,0.2,0.2,0.3,0.2c0.1,0,0.2-0.1,0.3-0.2
		c0.2,0.4,0,0.8-0.4,1c-0.4,0.2-0.8,0-1-0.4s0-0.8,0.4-1C22.8,35,22.9,35,23,35 M4,32.5h49.9c-1.1-0.3-3.4-0.6-3-2.1
		c-2,2.3-6.7,1.6-7.9,0.5c-1.3,1.9-9.1,1.2-9.7-0.3c-1.7,2-6.9,2-8.6,0c-0.5,1.5-8.3,2.2-9.7,0.3C13.8,32,9,32.7,7,30.4
		C7.4,31.8,5.1,32.2,4,32.5"/>
	<path class="st8" d="M25.8,42.4c-2.7-1.3-4.1-3-4.9-4.8c-1,0.3-2.2,0.5-3.5,0.5c-0.5,0-1.1,0-1.6,0c-0.7,0-1.4,0-2.1-0.1
		c2.4,2.4,5.4,4.3,11,4.3C25,42.4,25.4,42.4,25.8,42.4"/>
	<path class="st7" d="M21.9,39.3c-0.4-0.5-0.7-1.1-1-1.7c-1,0.3-2.2,0.5-3.5,0.5C18.3,38.6,19.6,39.1,21.9,39.3"/>
</g>
</svg>
