<?xml version="1.0" encoding="utf-8"?>
<!-- Generator: Adobe Illustrator 23.1.0, SVG Export Plug-In . SVG Version: 6.00 Build 0)  -->
<svg version="1.1" id="Layer_1" xmlns="http://www.w3.org/2000/svg" xmlns:xlink="http://www.w3.org/1999/xlink" x="0px" y="0px"
	 viewBox="0 0 58 58" style="enable-background:new 0 0 58 58;" xml:space="preserve">
<style type="text/css">
	.st0{fill-rule:evenodd;clip-rule:evenodd;fill:#FFFFFF;}
	.st1{fill-rule:evenodd;clip-rule:evenodd;fill:#A6A385;}
	.st2{fill-rule:evenodd;clip-rule:evenodd;fill:#499D4A;}
	.st3{fill-rule:evenodd;clip-rule:evenodd;fill:#58AA50;}
</style>
<path class="st0" d="M29.2,56l-1.4-0.5c0,0,0.2-7.3-2.5-7.9c-1.8-2,0.3-86.3,6.6-0.3c0,0-2.2,1.1-2.6,2.9C29,52.1,29.2,56,29.2,56
	L29.2,56z"/>
<path class="st1" d="M29.2,56l-1.4-0.5c0,0,0.2-7.3-2.5-7.9c-1.8-2,0.3-86.3,6.6-0.3c0,0-2.2,1.1-2.6,2.9C29,52.1,29.2,56,29.2,56
	L29.2,56z"/>
<path class="st0" d="M30,48.9c0,0,12.6-8.3,9.6-25.5C36.8,10.9,30.1,6.8,29.4,5.2c-0.8-1.1-1.6-3.1-1.6-3.1L28.3,37
	C28.3,37,27.2,47.6,30,48.9"/>
<path class="st2" d="M30,48.9c0,0,12.6-8.3,9.6-25.5C36.8,10.9,30.1,6.8,29.4,5.2c-0.8-1.1-1.6-3.1-1.6-3.1L28.3,37
	C28.3,37,27.2,47.6,30,48.9"/>
<path class="st0" d="M27.1,49.4c0,0-11.8-8.1-11.1-22.3c0.7-14.2,9-21.2,10.6-22.4c1.1-1.1,1.1-1.5,1.2-2.7
	c0.7,1.6,0.6,23.6,0.7,26.2C28.7,38.2,27.9,47.5,27.1,49.4z"/>
<path class="st3" d="M27.1,49.4c0,0-11.8-8.1-11.1-22.3c0.7-14.2,9-21.2,10.6-22.4c1.1-1.1,1.1-1.5,1.2-2.7
	c0.7,1.6,0.6,23.6,0.7,26.2C28.7,38.2,27.9,47.5,27.1,49.4z"/>
</svg>
