<?xml version="1.0" encoding="utf-8"?>
<!-- Generator: Adobe Illustrator 23.1.0, SVG Export Plug-In . SVG Version: 6.00 Build 0)  -->
<svg version="1.1" id="Layer_1" xmlns="http://www.w3.org/2000/svg" xmlns:xlink="http://www.w3.org/1999/xlink" x="0px" y="0px"
	 viewBox="0 0 58 58" style="enable-background:new 0 0 58 58;" xml:space="preserve">
<style type="text/css">
	.st0{fill-rule:evenodd;clip-rule:evenodd;fill:#FFFFFF;}
	.st1{fill-rule:evenodd;clip-rule:evenodd;fill:#3174B9;}
	.st2{fill-rule:evenodd;clip-rule:evenodd;fill:#CA3132;}
</style>
<g>
	<path class="st0" d="M5,5h48v48H5V5z"/>
	<path class="st1" d="M25,30.3c0,0-1.1,0.7,0.8,0.9c2.4,0.3,3.6,0.2,6.2-0.3c0,0,0.7,0.4,1.7,0.8C27.8,34.3,20.4,31.6,25,30.3z
		 M24.3,27c0,0-1.3,1,0.7,1.2c2.5,0.3,4.5,0.3,8-0.4c0,0,0.5,0.5,1.2,0.8C27.1,30.6,19.2,28.7,24.3,27z"/>
	<path class="st2" d="M30.3,21.5c1.4,1.7-0.4,3.2-0.4,3.2s3.7-1.9,2-4.3c-1.6-2.2-2.8-3.3,3.8-7.1C35.7,13.2,25.4,15.8,30.3,21.5z"
		/>
	<path class="st1" d="M38.1,32.8c0,0,0.8,0.7-0.9,1.2c-3.4,1-14.1,1.3-17.1,0c-1.1-0.5,0.9-1.1,1.6-1.2c0.7-0.1,1-0.1,1-0.1
		c-1.2-0.8-7.7,1.6-3.3,2.4C31.4,37,41.2,34.2,38.1,32.8L38.1,32.8z M25.6,23.6c0,0-5.5,1.3-1.9,1.8c1.5,0.2,4.5,0.2,7.2-0.1
		c2.3-0.2,4.5-0.6,4.5-0.6s-0.8,0.3-1.4,0.7c-5.5,1.5-16.2,0.8-13.2-0.7C23.4,23.5,25.6,23.6,25.6,23.6L25.6,23.6z M35.4,29.1
		c5.6-2.9,3-5.7,1.2-5.4c-0.4,0.1-0.6,0.2-0.6,0.2s0.2-0.3,0.5-0.4c3.6-1.3,6.4,3.7-1.2,5.7C35.2,29.3,35.3,29.2,35.4,29.1z"/>
	<path class="st2" d="M32,7.1c0,0,3.1,3.1-3,7.9c-4.9,3.8-1.1,6,0,8.6c-2.8-2.6-4.9-4.8-3.5-6.9C27.5,13.6,33.2,12.1,32,7.1L32,7.1z
		"/>
	<path class="st1" d="M26.1,37c5.4,0.3,13.7-0.2,13.9-2.8c0,0-0.4,1-4.5,1.7c-4.6,0.9-10.3,0.8-13.7,0.2
		C21.9,36.2,22.6,36.8,26.1,37z"/>
	<path class="st2" d="M39.8,41.6h-0.2v-0.1h0.4v0.1h-0.2v0.5h-0.1V41.6z M40.7,41.7L40.7,41.7l-0.2,0.4h-0.1l-0.2-0.4h0v0.4h-0.1
		v-0.6h0.2l0.2,0.4l0.2-0.4h0.2v0.6h-0.1L40.7,41.7L40.7,41.7L40.7,41.7z M25.2,46.8c-0.5,0.4-1,0.7-1.5,0.7c-0.7,0-1.1-0.4-1.1-1.1
		c0-0.7,0.4-1.2,2-1.2h0.6L25.2,46.8L25.2,46.8z M26.6,48.4v-4.9c0-1.3-0.7-2.1-2.4-2.1c-1,0-1.9,0.2-2.6,0.6l0.2,0.9
		c0.6-0.2,1.3-0.4,2-0.4c1,0,1.4,0.4,1.4,1.2v0.6h-0.5c-2.4,0-3.5,0.9-3.5,2.3c0,1.2,0.7,1.9,2.1,1.9c0.9,0,1.5-0.4,2.1-0.9l0.1,0.7
		H26.6z M31.3,48.4h-1.8l-2.1-6.9H29l1.3,4.2l0.3,1.3c0.7-1.8,1.1-3.7,1.4-5.5h1.5C33.1,43.8,32.3,46.3,31.3,48.4z M38.1,46.8
		c-0.5,0.4-1.1,0.7-1.5,0.7c-0.7,0-1.1-0.4-1.1-1.1c0-0.7,0.4-1.2,2-1.2h0.6V46.8z M39.5,48.4v-4.9c0-1.3-0.7-2.1-2.4-2.1
		c-1,0-1.9,0.2-2.6,0.6l0.2,0.9c0.6-0.2,1.3-0.4,2-0.4c1,0,1.4,0.4,1.4,1.2v0.6h-0.5c-2.4,0-3.5,0.9-3.5,2.3c0,1.2,0.7,1.9,2.1,1.9
		c0.9,0,1.5-0.4,2.1-0.9l0.1,0.7H39.5z M19.7,49.6c-0.4,0.6-1,1-1.8,1.3l-0.7-0.8c0.5-0.3,1-0.7,1.2-1.1c0.2-0.4,0.3-0.8,0.3-2v-7.8
		h1.5v7.7C20.2,48.4,20.1,49,19.7,49.6z"/>
</g>
</svg>
