<?xml version="1.0" encoding="utf-8"?>
<!-- Generator: Adobe Illustrator 23.1.0, SVG Export Plug-In . SVG Version: 6.00 Build 0)  -->
<svg version="1.1" id="Layer_1" xmlns="http://www.w3.org/2000/svg" xmlns:xlink="http://www.w3.org/1999/xlink" x="0px" y="0px"
	 viewBox="0 0 58 58" style="enable-background:new 0 0 58 58;" xml:space="preserve">
<style type="text/css">
	.st0{fill:#912626;}
	.st1{fill:#C6302B;}
	.st2{fill:#FFFFFF;}
	.st3{fill:#621B1C;}
	.st4{fill:#9A2928;}
</style>
<path class="st0" d="M50.5,38.7c-2.6,1.3-15.8,6.8-18.7,8.3c-2.8,1.5-4.4,1.5-6.6,0.4c-2.2-1.1-16.4-6.8-18.9-8
	c-1.3-0.6-1.9-1.1-1.9-1.6v-4.9c0,0,18.4-4,21.4-5.1c3-1.1,4-1.1,6.5-0.2c2.5,0.9,17.6,3.7,20.1,4.6l0,4.8
	C52.4,37.5,51.8,38,50.5,38.7"/>
<path class="st1" d="M50.5,33.9c-2.6,1.3-15.8,6.8-18.7,8.3c-2.8,1.5-4.4,1.5-6.6,0.4c-2.2-1.1-16.4-6.8-18.9-8
	c-2.5-1.2-2.6-2.1-0.1-3c2.5-1,16.5-6.5,19.5-7.6c3-1.1,4-1.1,6.5-0.2c2.5,0.9,15.7,6.2,18.2,7.1C53,31.8,53.1,32.5,50.5,33.9"/>
<path class="st0" d="M50.5,30.8c-2.6,1.3-15.8,6.8-18.7,8.3c-2.8,1.5-4.4,1.5-6.6,0.4c-2.2-1.1-16.4-6.8-18.9-8
	c-1.3-0.6-1.9-1.1-1.9-1.6V25c0,0,18.4-4,21.4-5.1c3-1.1,4-1.1,6.5-0.2c2.5,0.9,17.6,3.6,20.1,4.6l0,4.8
	C52.4,29.6,51.8,30.1,50.5,30.8"/>
<path class="st1" d="M50.5,26c-2.6,1.3-15.8,6.8-18.7,8.3c-2.8,1.5-4.4,1.5-6.6,0.4c-2.2-1.1-16.4-6.8-18.9-8
	c-2.5-1.2-2.6-2.1-0.1-3c2.5-1,16.5-6.5,19.5-7.6c3-1.1,4-1.1,6.5-0.2c2.5,0.9,15.7,6.2,18.2,7.1C53,23.9,53.1,24.7,50.5,26"/>
<path class="st0" d="M50.5,22.7C47.9,24,34.7,29.5,31.9,31c-2.8,1.5-4.4,1.5-6.6,0.4c-2.2-1.1-16.4-6.8-18.9-8
	c-1.3-0.6-1.9-1.1-1.9-1.6v-4.9c0,0,18.4-4,21.4-5.1c3-1.1,4-1.1,6.5-0.2c2.5,0.9,17.6,3.6,20.1,4.6l0,4.8
	C52.4,21.5,51.8,22,50.5,22.7"/>
<path class="st1" d="M50.5,17.9c-2.6,1.3-15.8,6.8-18.7,8.3c-2.8,1.5-4.4,1.5-6.6,0.4c-2.2-1.1-16.4-6.8-18.9-8
	c-2.5-1.2-2.6-2.1-0.1-3c2.5-1,16.5-6.5,19.5-7.6c3-1.1,4-1.1,6.5-0.2c2.5,0.9,15.7,6.2,18.2,7.1C53,15.8,53.1,16.5,50.5,17.9"/>
<path class="st2" d="M34.3,13.1l-4.1,0.4l-0.9,2.2l-1.5-2.5l-4.8-0.4l3.6-1.3l-1.1-2l3.3,1.3l3.1-1l-0.8,2L34.3,13.1 M29,23.9
	l-7.7-3.2l11-1.7L29,23.9 M18.3,14.4c3.3,0,5.9,1,5.9,2.3c0,1.3-2.6,2.3-5.9,2.3s-5.9-1-5.9-2.3C12.4,15.4,15,14.4,18.3,14.4"/>
<path class="st3" d="M39.1,13.8l6.5,2.6l-6.5,2.6L39.1,13.8"/>
<path class="st4" d="M31.9,16.6l7.2-2.9l0,5.2l-0.7,0.3L31.9,16.6"/>
</svg>
