<?xml version="1.0" encoding="utf-8"?>
<!-- Generator: Adobe Illustrator 23.1.0, SVG Export Plug-In . SVG Version: 6.00 Build 0)  -->
<svg version="1.1" id="Layer_1" xmlns="http://www.w3.org/2000/svg" xmlns:xlink="http://www.w3.org/1999/xlink" x="0px" y="0px"
	 viewBox="0 0 58 58" style="enable-background:new 0 0 58 58;" xml:space="preserve">
<style type="text/css">
	.st0{fill:#9A4993;}
	.st1{fill:#6A1577;}
	.st2{fill:#813084;}
	.st3{fill:#FFFFFF;}
</style>
<path id="XMLID_3_" class="st0" d="M50.4,19.1c0-0.8-0.2-1.5-0.5-2.1c-0.3-0.6-0.9-1.1-1.5-1.5c-5.7-3.3-11.4-6.5-17.1-9.8
	c-1.5-0.9-3-0.9-4.5,0c-2.3,1.3-13.6,7.8-17,9.8c-1.4,0.8-2.1,2-2.1,3.6c0,6.6,0,13.2,0,19.8c0,0.8,0.2,1.5,0.5,2.1
	c0.3,0.6,0.9,1.1,1.6,1.5c3.4,2,14.7,8.4,17,9.8c1.5,0.9,3,0.9,4.5,0c5.7-3.3,11.4-6.6,17.1-9.8c0.7-0.4,1.2-0.9,1.6-1.5
	c0.3-0.6,0.5-1.3,0.5-2.1C50.4,38.9,50.4,25.7,50.4,19.1"/>
<path id="XMLID_4_" class="st1" d="M29.1,28.9L8.1,41c0.3,0.6,0.9,1.1,1.6,1.5c3.4,2,14.7,8.4,17,9.8c1.5,0.9,3,0.9,4.5,0
	c5.7-3.3,11.4-6.6,17.1-9.8c0.7-0.4,1.2-0.9,1.6-1.5L29.1,28.9"/>
<path id="XMLID_5_" class="st1" d="M22.9,32.5c1.2,2.1,3.5,3.6,6.1,3.6c2.6,0,4.9-1.5,6.2-3.6l-6.1-3.5L22.9,32.5"/>
<path id="XMLID_6_" class="st2" d="M50.4,19.1c0-0.8-0.2-1.5-0.5-2.1l-20.8,12l20.8,12c0.3-0.6,0.5-1.3,0.5-2.1
	C50.4,38.9,50.4,25.7,50.4,19.1"/>
<path id="XMLID_9_" class="st3" d="M35.2,32.5c-1.2,2.1-3.5,3.6-6.2,3.6c-2.6,0-4.9-1.4-6.1-3.6c-0.6-1-0.9-2.2-0.9-3.5
	c0-3.9,3.2-7.1,7.1-7.1c2.6,0,4.9,1.4,6.1,3.5l6.2-3.6c-2.5-4.2-7-7.1-12.3-7.1c-7.8,0-14.2,6.3-14.2,14.2c0,2.6,0.7,5,1.9,7.1
	c2.4,4.3,7,7.1,12.3,7.1c5.3,0,9.9-2.9,12.3-7.1L35.2,32.5"/>
<g id="XMLID_32_">
	<rect id="XMLID_1_" x="41.6" y="25.6" class="st3" width="1.4" height="6.8"/>
	<rect id="XMLID_30_" x="44.7" y="25.6" class="st3" width="1.4" height="6.8"/>
	
		<rect id="XMLID_31_" x="43.1" y="24.1" transform="matrix(-1.836970e-16 1 -1 -1.836970e-16 71.2963 -16.3212)" class="st3" width="1.4" height="6.8"/>
	
		<rect id="XMLID_23_" x="43.1" y="27.2" transform="matrix(-1.836970e-16 1 -1 -1.836970e-16 74.4086 -13.2089)" class="st3" width="1.4" height="6.8"/>
</g>
</svg>
