<?xml version="1.0" encoding="utf-8"?>
<!-- Generator: Adobe Illustrator 23.1.0, SVG Export Plug-In . SVG Version: 6.00 Build 0)  -->
<svg version="1.1" id="Layer_1" xmlns="http://www.w3.org/2000/svg" xmlns:xlink="http://www.w3.org/1999/xlink" x="0px" y="0px"
	 viewBox="0 0 58 58" style="enable-background:new 0 0 58 58;" xml:space="preserve">
<style type="text/css">
	.st0{fill:url(#SVGID_1_);}
	.st1{fill:url(#SVGID_2_);}
</style>
<linearGradient id="SVGID_1_" gradientUnits="userSpaceOnUse" x1="-275.8464" y1="425.7978" x2="-275.8336" y2="425.785" gradientTransform="matrix(1849.2675 0 0 -1853.3917 510123.2188 789179.5625)">
	<stop  offset="0" style="stop-color:#387EB8"/>
	<stop  offset="1" style="stop-color:#366994"/>
</linearGradient>
<path class="st0" d="M28.8,5.1c-12.2,0-11.4,5.3-11.4,5.3l0,5.5H29v1.6H12.8c0,0-7.8-0.9-7.8,11.4c0,12.3,6.8,11.9,6.8,11.9h4.1
	v-5.7c0,0-0.2-6.8,6.7-6.8h11.5c0,0,6.5,0.1,6.5-6.3V11.5C40.6,11.5,41.6,5.1,28.8,5.1z M22.4,8.8c1.2,0,2.1,0.9,2.1,2.1
	c0,0,0,0,0,0c0,1.2-0.9,2.1-2.1,2.1c0,0,0,0,0,0c-1.2,0-2.1-0.9-2.1-2.1c0,0,0,0,0,0C20.3,9.7,21.3,8.8,22.4,8.8
	C22.4,8.8,22.4,8.8,22.4,8.8z"/>
<linearGradient id="SVGID_2_" gradientUnits="userSpaceOnUse" x1="-276.187" y1="426.1281" x2="-276.1732" y2="426.115" gradientTransform="matrix(1849.2671 0 0 -1853.3918 510767.5938 789807)">
	<stop  offset="0" style="stop-color:#FFE052"/>
	<stop  offset="1" style="stop-color:#FFC331"/>
</linearGradient>
<path class="st1" d="M29.2,52.9c12.2,0,11.4-5.3,11.4-5.3l0-5.5H29v-1.6h16.2c0,0,7.8,0.9,7.8-11.4c0-12.3-6.8-11.9-6.8-11.9h-4.1
	v5.7c0,0,0.2,6.8-6.7,6.8H23.9c0,0-6.5-0.1-6.5,6.3v10.5C17.4,46.5,16.4,52.9,29.2,52.9L29.2,52.9z M35.6,49.2
	c-1.2,0-2.1-0.9-2.1-2.1c0,0,0,0,0,0c0-1.2,0.9-2.1,2.1-2.1c0,0,0,0,0,0c1.2,0,2.1,0.9,2.1,2.1c0,0,0,0,0,0
	C37.7,48.3,36.7,49.2,35.6,49.2C35.6,49.2,35.6,49.2,35.6,49.2L35.6,49.2z"/>
</svg>
